<svg width="963" height="472" viewBox="0 0 963 472" fill="none" xmlns="http://www.w3.org/2000/svg">
<rect width="963" height="472" fill="#8AB839"/>
<g clip-path="url(#clip0)">
<path d="M608.141 187.885C611.998 195.468 615.037 203.288 623.544 203.288C627.629 203.288 631.547 201.666 634.436 198.777C637.325 195.888 638.947 191.97 638.947 187.885C638.947 183.8 637.325 179.882 634.436 176.994C631.547 174.105 627.629 172.482 623.544 172.482C614.899 172.374 600.963 173.772 608.141 187.885Z" fill="#2F2E41"/>
<path d="M620.248 373.129L613.665 374.595L604.874 349.903L614.59 347.738L620.248 373.129Z" fill="#A0616A"/>
<path d="M623.349 379.136L602.123 383.866L602.063 383.597C601.822 382.512 601.796 381.39 601.988 380.295C602.179 379.201 602.585 378.154 603.181 377.216C603.777 376.278 604.552 375.466 605.462 374.828C606.372 374.189 607.399 373.736 608.484 373.494L608.484 373.494L621.448 370.605L623.349 379.136Z" fill="#2F2E41"/>
<path d="M639.803 381.954H633.059L629.85 355.94L639.804 355.941L639.803 381.954Z" fill="#A0616A"/>
<path d="M641.523 388.492L619.777 388.491V388.216C619.777 387.105 619.995 386.004 620.421 384.977C620.846 383.95 621.47 383.017 622.256 382.231C623.042 381.445 623.975 380.822 625.002 380.396C626.029 379.971 627.129 379.752 628.241 379.752H628.241L641.523 379.752L641.523 388.492Z" fill="#2F2E41"/>
<path d="M639.848 368.322H631.24C630.642 368.32 630.065 368.103 629.615 367.709C629.164 367.316 628.87 366.774 628.788 366.182L620.985 305.825C620.959 305.637 620.869 305.463 620.729 305.333C620.589 305.203 620.409 305.126 620.219 305.114C620.029 305.102 619.841 305.156 619.686 305.267C619.531 305.379 619.42 305.54 619.37 305.724L614.746 322.958L618.915 362.21C618.985 362.815 618.83 363.424 618.479 363.922C618.128 364.42 617.606 364.771 617.012 364.907L610.184 366.483C609.578 366.62 608.941 366.525 608.401 366.216C607.861 365.907 607.457 365.408 607.267 364.815L596.271 326.656C595.386 323.86 595.081 320.912 595.376 317.993L598.816 283.592L599.077 283.605L645.008 285.819L642.322 365.933C642.302 366.575 642.032 367.184 641.57 367.63C641.108 368.076 640.49 368.324 639.848 368.322Z" fill="#2F2E41"/>
<path d="M622.786 203.588C630.248 203.588 636.298 197.539 636.298 190.077C636.298 182.615 630.248 176.566 622.786 176.566C615.324 176.566 609.275 182.615 609.275 190.077C609.275 197.539 615.324 203.588 622.786 203.588Z" fill="#A0616A"/>
<path d="M643.979 289.524C643.935 289.524 643.89 289.523 643.845 289.52L598.05 287.058C597.672 287.038 597.303 286.931 596.973 286.746C596.642 286.561 596.359 286.302 596.144 285.99C595.929 285.678 595.789 285.321 595.734 284.946C595.679 284.571 595.711 284.188 595.827 283.828L599.451 272.573C603.332 260.506 603.995 247.635 601.375 235.234C600.688 231.988 600.703 228.634 601.416 225.395C602.13 222.156 603.527 219.106 605.515 216.45C607.469 213.831 609.96 211.659 612.821 210.08C615.682 208.501 618.848 207.55 622.106 207.293H622.106C622.33 207.275 622.555 207.259 622.781 207.246C626.228 207.042 629.677 207.61 632.876 208.909C636.075 210.207 638.944 212.204 641.274 214.753C643.603 217.301 645.335 220.338 646.341 223.64C647.348 226.943 647.605 230.429 647.093 233.844L643.9 255.283L646.446 286.85C646.473 287.19 646.43 287.533 646.318 287.856C646.207 288.179 646.03 288.476 645.798 288.727C645.566 288.978 645.285 289.179 644.972 289.316C644.659 289.453 644.321 289.524 643.979 289.524Z" fill="white"/>
<path d="M587.627 292.373C588.297 291.92 588.859 291.325 589.274 290.631C589.689 289.937 589.947 289.16 590.029 288.356C590.112 287.551 590.017 286.738 589.751 285.975C589.485 285.211 589.055 284.515 588.491 283.935L597.309 266.365L587.164 267.566L580.346 284.067C579.435 285.079 578.927 286.39 578.918 287.751C578.909 289.113 579.4 290.43 580.297 291.454C581.195 292.478 582.437 293.137 583.788 293.307C585.139 293.476 586.505 293.144 587.627 292.373H587.627Z" fill="#A0616A"/>
<path d="M648.159 295.236C647.575 294.677 647.12 293.997 646.827 293.244C646.534 292.49 646.409 291.681 646.463 290.874C646.516 290.067 646.745 289.282 647.135 288.573C647.525 287.864 648.065 287.25 648.718 286.772L642.961 267.976L652.762 270.856L656.726 288.264C657.455 289.414 657.737 290.791 657.519 292.135C657.3 293.479 656.596 294.696 655.54 295.555C654.484 296.415 653.149 296.857 651.789 296.798C650.429 296.739 649.137 296.184 648.159 295.236V295.236Z" fill="#A0616A"/>
<path d="M647.206 285.39C646.606 285.392 646.025 285.174 645.574 284.778C645.123 284.382 644.832 283.835 644.755 283.24L640.174 248.68L632.865 221.673C632.557 220.532 632.511 219.335 632.733 218.173C632.954 217.011 633.437 215.915 634.144 214.967C634.851 214.02 635.764 213.245 636.815 212.702C637.865 212.159 639.026 211.861 640.208 211.832C642.081 211.793 643.906 212.425 645.353 213.616C646.799 214.806 647.771 216.476 648.093 218.321L658.982 282.104C659.041 282.45 659.026 282.805 658.937 283.146C658.848 283.486 658.688 283.803 658.467 284.076C658.246 284.35 657.969 284.573 657.655 284.731C657.342 284.889 656.998 284.979 656.646 284.993L647.314 285.388C647.278 285.389 647.242 285.39 647.206 285.39Z" fill="white"/>
<path d="M592.536 281.509C592.359 281.508 592.183 281.49 592.01 281.453L582.874 279.505C582.531 279.431 582.206 279.286 581.923 279.077C581.64 278.869 581.405 278.603 581.232 278.296C581.06 277.99 580.955 277.65 580.925 277.3C580.894 276.95 580.938 276.597 581.054 276.265L602.449 215.2C603.077 213.435 604.315 211.953 605.939 211.021C607.564 210.09 609.468 209.77 611.308 210.119C612.469 210.346 613.563 210.833 614.508 211.544C615.453 212.255 616.224 213.171 616.763 214.224C617.301 215.277 617.594 216.438 617.618 217.62C617.643 218.803 617.398 219.975 616.903 221.049L605.171 246.488L594.891 279.763C594.738 280.268 594.426 280.71 594.002 281.024C593.578 281.339 593.064 281.509 592.536 281.509Z" fill="white"/>
<path d="M608.448 182.441C611.536 184.569 615.201 185.702 618.95 185.687C617.613 186.614 616.09 187.241 614.487 187.523C619.473 188.592 624.626 188.621 629.623 187.608C630.734 187.43 631.806 187.062 632.791 186.52C633.283 186.245 633.711 185.871 634.048 185.42C634.385 184.969 634.623 184.453 634.747 183.904C635.079 182.007 633.601 180.284 632.065 179.122C629.713 177.371 627.001 176.164 624.125 175.589C621.25 175.015 618.282 175.087 615.438 175.799C613.581 176.28 611.72 177.091 610.514 178.582C609.307 180.074 608.95 182.373 610.099 183.909L608.448 182.441Z" fill="#2F2E41"/>
<path d="M537.945 83H305.797C304.525 83.0011 303.306 83.5068 302.406 84.4062C301.507 85.3056 301.001 86.5251 301 87.797V314.069C301.001 315.341 301.507 316.561 302.406 317.46C303.306 318.359 304.525 318.865 305.797 318.866H326.151V317.496H305.797C304.888 317.495 304.017 317.134 303.375 316.491C302.732 315.849 302.371 314.978 302.37 314.069V87.797C302.371 86.8884 302.732 86.0172 303.375 85.3747C304.017 84.7322 304.888 84.3708 305.797 84.3698H537.945C538.854 84.3697 539.726 84.7306 540.37 85.3732C541.014 86.0157 541.376 86.8875 541.377 87.797V314.069C541.378 314.738 541.181 315.393 540.811 315.951C540.482 316.441 540.036 316.842 539.512 317.117C539.028 317.367 538.49 317.497 537.945 317.496H517.59V318.866H537.945C538.638 318.866 539.323 318.716 539.953 318.425C540.583 318.134 541.142 317.711 541.592 317.183C541.63 317.142 541.665 317.098 541.696 317.051C541.983 316.701 542.215 316.309 542.384 315.89C542.625 315.314 542.749 314.694 542.747 314.069V87.797C542.746 86.5242 542.239 85.3041 541.339 84.4046C540.438 83.5052 539.217 83 537.945 83Z" fill="white"/>
<path d="M542.059 102.228H301.683V103.599H542.059V102.228Z" fill="white"/>
<path d="M313.34 97.4011C315.612 97.4011 317.454 95.5592 317.454 93.2871C317.454 91.015 315.612 89.1731 313.34 89.1731C311.068 89.1731 309.226 91.015 309.226 93.2871C309.226 95.5592 311.068 97.4011 313.34 97.4011Z" fill="white"/>
<path d="M325.167 97.4011C327.439 97.4011 329.281 95.5592 329.281 93.2871C329.281 91.015 327.439 89.1731 325.167 89.1731C322.895 89.1731 321.053 91.015 321.053 93.2871C321.053 95.5592 322.895 97.4011 325.167 97.4011Z" fill="white"/>
<path d="M336.995 97.4011C339.267 97.4011 341.109 95.5592 341.109 93.2871C341.109 91.015 339.267 89.1731 336.995 89.1731C334.723 89.1731 332.881 91.015 332.881 93.2871C332.881 95.5592 334.723 97.4011 336.995 97.4011Z" fill="white"/>
<path d="M479.91 133.971H363.836C361.94 133.971 360.121 133.218 358.779 131.876C357.438 130.535 356.685 128.716 356.685 126.82C356.685 124.923 357.438 123.104 358.779 121.763C360.121 120.422 361.94 119.668 363.836 119.668H479.91C481.807 119.668 483.626 120.422 484.967 121.763C486.308 123.104 487.061 124.923 487.061 126.82C487.061 128.716 486.308 130.535 484.967 131.876C483.626 133.218 481.807 133.971 479.91 133.971ZM363.836 120.768C362.231 120.768 360.692 121.406 359.557 122.541C358.423 123.676 357.785 125.215 357.785 126.82C357.785 128.425 358.423 129.964 359.557 131.099C360.692 132.233 362.231 132.871 363.836 132.871H479.91C481.515 132.871 483.054 132.233 484.189 131.099C485.324 129.964 485.961 128.425 485.961 126.82C485.961 125.215 485.324 123.676 484.189 122.541C483.054 121.406 481.515 120.768 479.91 120.768H363.836Z" fill="white"/>
<path d="M509.341 233.868H334.405C331.926 233.866 329.549 232.879 327.796 231.126C326.042 229.373 325.056 226.996 325.053 224.516V168.405C325.056 165.926 326.042 163.548 327.796 161.795C329.549 160.042 331.926 159.056 334.405 159.053H509.341C511.82 159.056 514.198 160.042 515.951 161.795C517.704 163.548 518.69 165.926 518.693 168.405V224.516C518.69 226.996 517.704 229.373 515.951 231.126C514.198 232.879 511.82 233.866 509.341 233.868ZM334.405 160.153C332.218 160.156 330.12 161.026 328.573 162.573C327.026 164.12 326.156 166.217 326.154 168.405V224.516C326.156 226.704 327.026 228.802 328.573 230.348C330.12 231.895 332.218 232.766 334.405 232.768H509.341C511.529 232.766 513.626 231.895 515.173 230.348C516.72 228.802 517.59 226.704 517.593 224.516V168.405C517.59 166.217 516.72 164.12 515.173 162.573C513.626 161.026 511.529 160.156 509.341 160.153H334.405Z" fill="white"/>
<path d="M444.813 193.435H383.751C382.584 193.435 381.464 192.971 380.639 192.146C379.814 191.321 379.35 190.201 379.35 189.034C379.35 187.867 379.814 186.748 380.639 185.922C381.464 185.097 382.584 184.633 383.751 184.633H444.813C445.981 184.633 447.1 185.097 447.925 185.922C448.751 186.748 449.214 187.867 449.214 189.034C449.214 190.201 448.751 191.321 447.925 192.146C447.1 192.971 445.981 193.435 444.813 193.435Z" fill="white"/>
<path d="M501.475 208.288H383.751C382.584 208.288 381.464 207.824 380.639 206.999C379.814 206.174 379.35 205.054 379.35 203.887C379.35 202.72 379.814 201.601 380.639 200.775C381.464 199.95 382.584 199.486 383.751 199.486H501.475C502.642 199.486 503.761 199.95 504.587 200.775C505.412 201.601 505.876 202.72 505.876 203.887C505.876 205.054 505.412 206.174 504.587 206.999C503.761 207.824 502.642 208.288 501.475 208.288Z" fill="white"/>
<path d="M354.374 212.964C363.488 212.964 370.877 205.575 370.877 196.461C370.877 187.346 363.488 179.957 354.374 179.957C345.259 179.957 337.871 187.346 337.871 196.461C337.871 205.575 345.259 212.964 354.374 212.964Z" fill="white"/>
<path d="M501.468 226.167H486.065C484.898 226.167 483.779 225.703 482.953 224.878C482.128 224.052 481.664 222.933 481.664 221.766C481.664 220.599 482.128 219.479 482.953 218.654C483.779 217.829 484.898 217.365 486.065 217.365H501.468C502.636 217.365 503.755 217.829 504.58 218.654C505.406 219.479 505.869 220.599 505.869 221.766C505.869 222.933 505.406 224.052 504.58 224.878C503.755 225.703 502.636 226.167 501.468 226.167Z" fill="white"/>
<path d="M501.468 226.167H486.065C484.898 226.167 483.779 225.703 482.953 224.878C482.128 224.052 481.664 222.933 481.664 221.766C481.664 220.599 482.128 219.479 482.953 218.654C483.779 217.829 484.898 217.365 486.065 217.365H501.468C502.636 217.365 503.755 217.829 504.58 218.654C505.406 219.479 505.869 220.599 505.869 221.766C505.869 222.933 505.406 224.052 504.58 224.878C503.755 225.703 502.636 226.167 501.468 226.167Z" fill="#CCCCCC"/>
<path d="M509.339 260.274H334.403C331.924 260.277 329.547 261.264 327.794 263.017C326.041 264.77 325.055 267.146 325.051 269.626V325.737C325.055 328.216 326.041 330.593 327.794 332.346C329.547 334.099 331.924 335.085 334.403 335.089H509.339C511.818 335.086 514.195 334.1 515.949 332.347C517.702 330.594 518.688 328.216 518.691 325.737V269.626C518.688 267.146 517.702 264.769 515.949 263.016C514.195 261.262 511.818 260.276 509.339 260.274ZM517.59 325.737C517.589 327.925 516.719 330.023 515.172 331.57C513.624 333.117 511.527 333.987 509.339 333.989H334.403C332.215 333.986 330.118 333.116 328.571 331.569C327.024 330.022 326.154 327.925 326.151 325.737V269.626C326.154 267.438 327.024 265.341 328.571 263.794C330.118 262.247 332.215 261.377 334.403 261.374H509.339C511.527 261.376 513.624 262.246 515.172 263.793C516.719 265.34 517.589 267.438 517.59 269.626V325.737Z" fill="white"/>
<path d="M444.813 294.656H383.751C382.584 294.656 381.464 294.192 380.639 293.367C379.814 292.541 379.35 291.422 379.35 290.255C379.35 289.088 379.814 287.968 380.639 287.143C381.464 286.318 382.584 285.854 383.751 285.854H444.813C445.981 285.854 447.1 286.318 447.925 287.143C448.751 287.968 449.214 289.088 449.214 290.255C449.214 291.422 448.751 292.541 447.925 293.367C447.1 294.192 445.981 294.656 444.813 294.656Z" fill="white"/>
<path d="M501.475 309.509H383.751C382.584 309.509 381.464 309.045 380.639 308.22C379.814 307.394 379.35 306.275 379.35 305.108C379.35 303.941 379.814 302.821 380.639 301.996C381.464 301.171 382.584 300.707 383.751 300.707H501.475C502.642 300.707 503.761 301.171 504.587 301.996C505.412 302.821 505.876 303.941 505.876 305.108C505.876 306.275 505.412 307.394 504.587 308.22C503.761 309.045 502.642 309.509 501.475 309.509Z" fill="white"/>
<path d="M354.374 314.185C363.488 314.185 370.877 306.796 370.877 297.681C370.877 288.567 363.488 281.178 354.374 281.178C345.259 281.178 337.871 288.567 337.871 297.681C337.871 306.796 345.259 314.185 354.374 314.185Z" fill="white"/>
<path d="M501.468 327.388H486.065C484.898 327.388 483.779 326.924 482.953 326.099C482.128 325.273 481.664 324.154 481.664 322.987C481.664 321.819 482.128 320.7 482.953 319.875C483.779 319.049 484.898 318.586 486.065 318.586H501.468C502.636 318.586 503.755 319.049 504.58 319.875C505.406 320.7 505.869 321.819 505.869 322.987C505.869 324.154 505.406 325.273 504.58 326.099C503.755 326.924 502.636 327.388 501.468 327.388Z" fill="#CCCCCC"/>
<path d="M660.923 389H583.907C583.761 389 583.621 388.942 583.518 388.839C583.415 388.736 583.357 388.596 583.357 388.45C583.357 388.304 583.415 388.164 583.518 388.061C583.621 387.958 583.761 387.9 583.907 387.9H660.923C661.069 387.9 661.209 387.958 661.312 388.061C661.415 388.164 661.473 388.304 661.473 388.45C661.473 388.596 661.415 388.736 661.312 388.839C661.209 388.942 661.069 389 660.923 389Z" fill="#3F3D56"/>
</g>
<defs>
<clipPath id="clip0">
<rect width="360.473" height="306" fill="white" transform="translate(301 83)"/>
</clipPath>
</defs>
</svg>
