<svg width="1023" height="524" viewBox="0 0 1023 524" fill="none" xmlns="http://www.w3.org/2000/svg">
<rect width="1023" height="524" fill="#8AB839"/>
<g clip-path="url(#clip0)">
<path d="M410.804 201.609C409.851 201.609 408.936 201.987 408.262 202.661C407.588 203.335 407.21 204.249 407.21 205.202C407.21 206.156 407.588 207.07 408.262 207.744C408.936 208.418 409.851 208.796 410.804 208.796H455.979V207.229C455.979 206.114 456.256 205.018 456.784 204.037C457.313 203.056 458.076 202.221 459.007 201.609H410.804Z" fill="#E6E6E6"/>
<path d="M451.911 193.522H436.637C435.684 193.522 434.77 193.144 434.096 192.47C433.422 191.796 433.043 190.882 433.043 189.928C433.043 188.975 433.422 188.061 434.096 187.387C434.77 186.713 435.684 186.334 436.637 186.334H451.911C452.864 186.334 453.779 186.713 454.453 187.387C455.127 188.061 455.505 188.975 455.505 189.928C455.505 190.882 455.127 191.796 454.453 192.47C453.779 193.144 452.864 193.522 451.911 193.522Z" fill="#E6E6E6"/>
<path d="M417.654 167.916H358.355C357.402 167.916 356.488 167.537 355.814 166.863C355.14 166.189 354.761 165.275 354.761 164.322C354.761 163.369 355.14 162.454 355.814 161.78C356.488 161.106 357.402 160.728 358.355 160.728H417.654C418.608 160.728 419.522 161.106 420.196 161.78C420.87 162.454 421.248 163.369 421.248 164.322C421.248 165.275 420.87 166.189 420.196 166.863C419.522 167.537 418.608 167.916 417.654 167.916Z" fill="#E6E6E6"/>
<path d="M391.823 152.642H384.186C383.233 152.642 382.319 152.263 381.645 151.589C380.971 150.915 380.592 150.001 380.592 149.048C380.592 148.094 380.971 147.18 381.645 146.506C382.319 145.832 383.233 145.454 384.186 145.454H391.823C392.776 145.454 393.69 145.832 394.364 146.506C395.038 147.18 395.417 148.094 395.417 149.048C395.417 150.001 395.038 150.915 394.364 151.589C393.69 152.263 392.776 152.642 391.823 152.642Z" fill="#E6E6E6"/>
<path d="M455.528 273.889H399.626C397.601 273.886 395.66 273.081 394.228 271.649C392.796 270.218 391.991 268.276 391.989 266.252V177.823C391.991 175.799 392.796 173.858 394.228 172.426C395.66 170.994 397.601 170.189 399.626 170.186H488.923C490.947 170.189 492.889 170.994 494.32 172.426C495.752 173.858 496.557 175.799 496.56 177.823V199.741H495.661V177.823C495.659 176.037 494.949 174.324 493.685 173.061C492.422 171.798 490.709 171.087 488.923 171.085H399.626C397.839 171.087 396.126 171.798 394.863 173.061C393.6 174.324 392.889 176.037 392.887 177.823V266.252C392.889 268.038 393.6 269.751 394.863 271.014C396.126 272.278 397.839 272.988 399.626 272.99H455.528V273.889Z" fill="white"/>
<path d="M392.438 220.952H351.688C349.663 220.95 347.722 220.145 346.29 218.713C344.858 217.281 344.053 215.34 344.051 213.315V141.411C344.053 139.386 344.858 137.445 346.29 136.013C347.722 134.581 349.663 133.776 351.688 133.773H424.321C426.346 133.776 428.287 134.581 429.719 136.013C431.151 137.445 431.956 139.386 431.958 141.411V170.636H431.06V141.411C431.058 139.624 430.347 137.911 429.084 136.648C427.821 135.385 426.108 134.674 424.321 134.672H351.688C349.901 134.674 348.188 135.385 346.925 136.648C345.662 137.911 344.951 139.624 344.949 141.411V213.315C344.951 215.102 345.662 216.814 346.925 218.078C348.188 219.341 349.901 220.052 351.688 220.054H392.438V220.952Z" fill="white"/>
<path d="M574.327 201.609C575.257 202.221 576.021 203.056 576.55 204.037C577.078 205.018 577.355 206.114 577.354 207.229V208.796H622.53C623.483 208.796 624.397 208.418 625.071 207.744C625.745 207.07 626.124 206.156 626.124 205.202C626.124 204.249 625.745 203.335 625.071 202.661C624.397 201.987 623.483 201.609 622.53 201.609H574.327Z" fill="#E6E6E6"/>
<path d="M577.829 189.928C577.83 188.976 578.209 188.062 578.882 187.388C579.556 186.715 580.47 186.336 581.422 186.334H596.697C597.65 186.334 598.564 186.713 599.238 187.387C599.912 188.061 600.29 188.975 600.29 189.928C600.29 190.882 599.912 191.796 599.238 192.47C598.564 193.144 597.65 193.522 596.697 193.522H581.422C580.47 193.521 579.556 193.142 578.882 192.468C578.209 191.795 577.83 190.881 577.829 189.928Z" fill="#E6E6E6"/>
<path d="M612.085 164.322C612.087 163.369 612.466 162.455 613.139 161.782C613.813 161.108 614.727 160.729 615.679 160.728H674.979C675.932 160.728 676.846 161.106 677.52 161.78C678.194 162.454 678.573 163.369 678.573 164.322C678.573 165.275 678.194 166.189 677.52 166.863C676.846 167.537 675.932 167.916 674.979 167.916H615.679C614.727 167.915 613.813 167.536 613.139 166.862C612.466 166.188 612.087 165.275 612.085 164.322Z" fill="#E6E6E6"/>
<path d="M637.917 149.048C637.918 148.095 638.297 147.181 638.971 146.508C639.644 145.834 640.558 145.455 641.511 145.454H649.148C650.101 145.454 651.015 145.832 651.689 146.506C652.363 147.18 652.742 148.094 652.742 149.048C652.742 150.001 652.363 150.915 651.689 151.589C651.015 152.263 650.101 152.642 649.148 152.642H641.511C640.558 152.64 639.644 152.261 638.971 151.588C638.297 150.914 637.918 150 637.917 149.048Z" fill="#E6E6E6"/>
<path d="M577.806 273.889H633.708C635.733 273.886 637.674 273.081 639.106 271.649C640.538 270.218 641.343 268.276 641.345 266.252V177.823C641.343 175.799 640.538 173.858 639.106 172.426C637.674 170.994 635.733 170.189 633.708 170.186H544.411C542.386 170.189 540.445 170.994 539.014 172.426C537.582 173.858 536.776 175.799 536.774 177.823V199.741H537.673V177.823C537.675 176.037 538.385 174.324 539.649 173.061C540.912 171.798 542.625 171.087 544.411 171.085H633.708C635.495 171.087 637.208 171.798 638.471 173.061C639.734 174.324 640.445 176.037 640.447 177.823V266.252C640.445 268.038 639.734 269.751 638.471 271.014C637.208 272.278 635.495 272.988 633.708 272.99H577.806V273.889Z" fill="white"/>
<path d="M640.896 220.952H681.646C683.671 220.95 685.612 220.145 687.044 218.713C688.475 217.281 689.281 215.34 689.283 213.315V141.411C689.281 139.386 688.475 137.445 687.044 136.013C685.612 134.581 683.671 133.776 681.646 133.773H609.013C606.988 133.776 605.047 134.581 603.615 136.013C602.183 137.445 601.378 139.386 601.375 141.411V170.636H602.274V141.411C602.276 139.624 602.987 137.911 604.25 136.648C605.513 135.385 607.226 134.674 609.013 134.672H681.646C683.432 134.674 685.145 135.385 686.409 136.648C687.672 137.911 688.382 139.624 688.384 141.411V213.315C688.382 215.102 687.672 216.814 686.409 218.078C685.145 219.341 683.432 220.052 681.646 220.054H640.896V220.952Z" fill="white"/>
<path d="M570.427 199.591H462.718C460.694 199.596 458.753 200.401 457.322 201.833C455.891 203.264 455.085 205.204 455.081 207.229V313.918C455.083 315.943 455.888 317.884 457.32 319.316C458.752 320.748 460.693 321.553 462.718 321.555H570.427C572.452 321.553 574.393 320.748 575.825 319.316C577.257 317.884 578.062 315.943 578.064 313.918V207.229C578.062 205.204 577.257 203.262 575.825 201.831C574.393 200.399 572.452 199.594 570.427 199.591V199.591ZM577.166 313.918C577.164 315.705 576.453 317.418 575.19 318.681C573.926 319.944 572.214 320.655 570.427 320.657H462.718C460.931 320.655 459.219 319.944 457.955 318.681C456.692 317.418 455.981 315.705 455.979 313.918V207.229C455.982 205.442 456.693 203.73 457.956 202.467C459.219 201.204 460.932 200.493 462.718 200.49H570.427C572.214 200.492 573.926 201.203 575.19 202.466C576.453 203.729 577.164 205.442 577.166 207.229V313.918Z" fill="white"/>
<path d="M561.945 241.142H471.199C470.246 241.142 469.332 240.763 468.658 240.089C467.984 239.415 467.605 238.501 467.605 237.548C467.605 236.595 467.984 235.68 468.658 235.006C469.332 234.332 470.246 233.954 471.199 233.954H561.945C562.899 233.954 563.813 234.332 564.487 235.006C565.161 235.68 565.539 236.595 565.539 237.548C565.539 238.501 565.161 239.415 564.487 240.089C563.813 240.763 562.899 241.142 561.945 241.142Z" fill="#CCCCCC"/>
<path d="M536.114 225.867H497.03C496.077 225.867 495.163 225.489 494.489 224.815C493.815 224.141 493.436 223.227 493.436 222.274C493.436 221.32 493.815 220.406 494.489 219.732C495.163 219.058 496.077 218.68 497.03 218.68H536.114C537.067 218.68 537.981 219.058 538.655 219.732C539.329 220.406 539.708 221.32 539.708 222.274C539.708 223.227 539.329 224.141 538.655 224.815C537.981 225.489 537.067 225.867 536.114 225.867Z" fill="white"/>
<path d="M510.058 262.705H470.974C470.021 262.705 469.107 262.326 468.433 261.652C467.759 260.979 467.38 260.064 467.38 259.111C467.38 258.158 467.759 257.244 468.433 256.57C469.107 255.896 470.021 255.517 470.974 255.517H510.058C511.011 255.517 511.925 255.896 512.599 256.57C513.273 257.244 513.652 258.158 513.652 259.111C513.652 260.064 513.273 260.979 512.599 261.652C511.925 262.326 511.011 262.705 510.058 262.705Z" fill="#CCCCCC"/>
<path d="M510.058 278.428H470.974C470.021 278.428 469.107 278.05 468.433 277.376C467.759 276.702 467.38 275.788 467.38 274.835C467.38 273.881 467.759 272.967 468.433 272.293C469.107 271.619 470.021 271.241 470.974 271.241H510.058C511.011 271.241 511.925 271.619 512.599 272.293C513.273 272.967 513.652 273.881 513.652 274.835C513.652 275.788 513.273 276.702 512.599 277.376C511.925 278.05 511.011 278.428 510.058 278.428Z" fill="#CCCCCC"/>
<path d="M510.058 294.152H470.974C470.021 294.152 469.107 293.773 468.433 293.099C467.759 292.425 467.38 291.511 467.38 290.558C467.38 289.605 467.759 288.691 468.433 288.017C469.107 287.343 470.021 286.964 470.974 286.964H510.058C511.011 286.964 511.925 287.343 512.599 288.017C513.273 288.691 513.652 289.605 513.652 290.558C513.652 291.511 513.273 292.425 512.599 293.099C511.925 293.773 511.011 294.152 510.058 294.152Z" fill="#CCCCCC"/>
<path d="M558.803 265.786C562.507 265.786 565.51 262.783 565.51 259.079C565.51 255.375 562.507 252.372 558.803 252.372C555.099 252.372 552.096 255.375 552.096 259.079C552.096 262.783 555.099 265.786 558.803 265.786Z" fill="white"/>
<path d="M558.139 261.638C557.988 261.638 557.841 261.589 557.72 261.499L557.713 261.493L556.137 260.287C555.989 260.174 555.893 260.007 555.868 259.823C555.844 259.639 555.894 259.453 556.007 259.305C556.12 259.158 556.287 259.061 556.471 259.037C556.655 259.013 556.841 259.063 556.989 259.176L558.01 259.958L560.422 256.811C560.478 256.738 560.548 256.677 560.627 256.631C560.707 256.585 560.795 256.555 560.886 256.543C560.977 256.531 561.07 256.537 561.159 256.561C561.248 256.584 561.331 256.625 561.404 256.681L561.404 256.681L561.389 256.702L561.404 256.681C561.552 256.795 561.648 256.962 561.672 257.146C561.696 257.33 561.647 257.516 561.534 257.663L558.696 261.364C558.631 261.449 558.546 261.518 558.45 261.565C558.353 261.613 558.247 261.637 558.139 261.637L558.139 261.638Z" fill="white"/>
<path d="M388.005 124.849C385.943 124.849 383.927 124.237 382.213 123.092C380.499 121.947 379.163 120.318 378.374 118.414C377.585 116.509 377.378 114.413 377.781 112.391C378.183 110.369 379.176 108.511 380.633 107.053C382.091 105.595 383.949 104.603 385.971 104.2C387.993 103.798 390.089 104.005 391.994 104.794C393.899 105.583 395.527 106.919 396.672 108.633C397.818 110.347 398.429 112.363 398.429 114.424C398.426 117.188 397.327 119.838 395.372 121.792C393.418 123.746 390.768 124.846 388.005 124.849V124.849ZM388.005 104.898C386.121 104.898 384.279 105.457 382.712 106.504C381.146 107.551 379.925 109.038 379.204 110.779C378.483 112.52 378.294 114.435 378.662 116.283C379.029 118.131 379.937 119.828 381.269 121.16C382.601 122.492 384.298 123.4 386.146 123.767C387.994 124.135 389.909 123.946 391.65 123.225C393.391 122.504 394.878 121.283 395.925 119.717C396.972 118.15 397.531 116.308 397.531 114.424C397.528 111.899 396.523 109.478 394.737 107.692C392.951 105.906 390.53 104.901 388.005 104.898V104.898Z" fill="white"/>
<path d="M387.016 118.23C386.792 118.23 386.573 118.157 386.394 118.023L386.383 118.014L384.038 116.221C383.93 116.138 383.839 116.034 383.77 115.916C383.702 115.797 383.657 115.666 383.639 115.531C383.621 115.395 383.63 115.257 383.666 115.125C383.701 114.993 383.762 114.869 383.845 114.76C383.928 114.652 384.032 114.561 384.151 114.492C384.269 114.424 384.4 114.379 384.536 114.361C384.671 114.344 384.809 114.353 384.941 114.388C385.073 114.423 385.197 114.484 385.306 114.568L386.824 115.732L390.413 111.051C390.496 110.942 390.6 110.851 390.718 110.783C390.836 110.714 390.967 110.67 391.103 110.652C391.238 110.634 391.376 110.643 391.508 110.678C391.64 110.714 391.764 110.775 391.873 110.858L391.873 110.858L391.851 110.889L391.873 110.858C392.092 111.026 392.236 111.275 392.272 111.548C392.308 111.822 392.234 112.099 392.066 112.318L387.846 117.822C387.748 117.949 387.622 118.052 387.479 118.122C387.335 118.192 387.177 118.229 387.017 118.228L387.016 118.23Z" fill="white"/>
<path d="M454.131 161.237C452.069 161.237 450.053 160.626 448.339 159.48C446.625 158.335 445.289 156.707 444.5 154.802C443.711 152.897 443.504 150.801 443.907 148.779C444.309 146.757 445.302 144.899 446.76 143.442C448.217 141.984 450.075 140.991 452.097 140.589C454.119 140.186 456.215 140.393 458.12 141.182C460.025 141.971 461.653 143.307 462.798 145.021C463.944 146.736 464.555 148.751 464.555 150.813C464.552 153.577 463.453 156.226 461.498 158.181C459.544 160.135 456.894 161.234 454.131 161.237V161.237ZM454.131 141.287C452.247 141.287 450.405 141.846 448.838 142.892C447.272 143.939 446.051 145.427 445.33 147.167C444.609 148.908 444.42 150.823 444.788 152.671C445.155 154.519 446.063 156.216 447.395 157.549C448.727 158.881 450.424 159.788 452.272 160.156C454.12 160.523 456.036 160.335 457.776 159.614C459.517 158.893 461.005 157.672 462.051 156.105C463.098 154.539 463.657 152.697 463.657 150.813C463.654 148.287 462.649 145.866 460.863 144.08C459.078 142.294 456.656 141.29 454.131 141.287V141.287Z" fill="white"/>
<path d="M453.142 154.618C452.918 154.618 452.699 154.546 452.52 154.411L452.509 154.403L450.164 152.609C449.945 152.441 449.802 152.193 449.765 151.919C449.729 151.645 449.803 151.368 449.971 151.149C450.14 150.93 450.388 150.786 450.662 150.75C450.936 150.714 451.213 150.788 451.432 150.956L452.951 152.12L456.539 147.439C456.622 147.331 456.726 147.239 456.844 147.171C456.962 147.103 457.093 147.058 457.229 147.04C457.364 147.022 457.502 147.031 457.634 147.067C457.766 147.102 457.89 147.163 457.999 147.246L457.999 147.246L457.977 147.277L458 147.246C458.219 147.415 458.362 147.663 458.398 147.937C458.434 148.211 458.36 148.488 458.192 148.707L453.972 154.21C453.874 154.337 453.749 154.44 453.605 154.51C453.461 154.581 453.303 154.617 453.143 154.617L453.142 154.618Z" fill="white"/>
<path d="M558.803 281.509C562.507 281.509 565.51 278.507 565.51 274.803C565.51 271.099 562.507 268.096 558.803 268.096C555.099 268.096 552.096 271.099 552.096 274.803C552.096 278.507 555.099 281.509 558.803 281.509Z" fill="white"/>
<path d="M558.139 277.361C557.988 277.361 557.841 277.313 557.72 277.222L557.713 277.216L556.137 276.011C556.064 275.955 556.002 275.885 555.956 275.805C555.91 275.726 555.88 275.638 555.868 275.547C555.856 275.455 555.862 275.363 555.886 275.274C555.91 275.185 555.951 275.102 556.007 275.029C556.063 274.956 556.133 274.894 556.212 274.848C556.292 274.802 556.38 274.772 556.471 274.76C556.562 274.748 556.655 274.754 556.744 274.778C556.833 274.802 556.916 274.843 556.989 274.899L558.01 275.682L560.422 272.535C560.478 272.462 560.548 272.4 560.627 272.354C560.707 272.308 560.795 272.278 560.886 272.266C560.977 272.254 561.07 272.26 561.159 272.284C561.248 272.308 561.331 272.349 561.404 272.405L561.404 272.405L561.389 272.426L561.404 272.405C561.552 272.518 561.648 272.685 561.672 272.869C561.696 273.053 561.647 273.239 561.534 273.387L558.696 277.087C558.631 277.172 558.546 277.241 558.45 277.289C558.353 277.336 558.247 277.361 558.139 277.36L558.139 277.361Z" fill="white"/>
<path d="M558.803 297.265C562.507 297.265 565.51 294.262 565.51 290.558C565.51 286.854 562.507 283.851 558.803 283.851C555.099 283.851 552.096 286.854 552.096 290.558C552.096 294.262 555.099 297.265 558.803 297.265Z" fill="white"/>
<path d="M558.139 293.116C557.988 293.117 557.841 293.068 557.72 292.977L557.713 292.972L556.136 291.766C555.989 291.653 555.893 291.486 555.869 291.302C555.845 291.118 555.894 290.932 556.007 290.784C556.12 290.637 556.287 290.541 556.471 290.516C556.655 290.492 556.841 290.541 556.989 290.654L558.01 291.437L560.422 288.29C560.478 288.217 560.548 288.155 560.628 288.109C560.707 288.063 560.795 288.034 560.886 288.022C560.977 288.01 561.07 288.016 561.159 288.039C561.248 288.063 561.331 288.104 561.404 288.16L561.404 288.16L561.389 288.181L561.404 288.16C561.552 288.273 561.648 288.44 561.672 288.624C561.697 288.808 561.647 288.995 561.534 289.142L558.696 292.842C558.631 292.928 558.546 292.997 558.45 293.044C558.353 293.091 558.247 293.116 558.139 293.116L558.139 293.116Z" fill="white"/>
<path d="M516.582 190.438C509.507 190.317 506.292 184.949 506.292 180.012C506.292 175.076 509.508 169.708 516.567 169.589H516.583C523.643 169.709 526.858 175.077 526.858 180.014C526.857 184.951 523.642 190.318 516.582 190.438ZM516.575 170.487C510.127 170.6 507.191 175.503 507.19 180.012C507.19 184.524 510.129 189.429 516.582 189.539C523.02 189.43 525.959 184.525 525.959 180.014C525.959 175.505 523.022 170.602 516.575 170.487V170.487Z" fill="white"/>
<path d="M518.915 180.579C520.718 183.712 515.768 184.936 513.874 183.048L514.348 182.035C517.428 184.695 520.141 180.088 515.437 180.525V179.415C519.744 179.762 517.325 175.427 514.456 177.992L513.993 176.978C516.331 174.552 521.58 177.486 517.874 179.911C518.288 180.008 518.655 180.244 518.915 180.579V180.579Z" fill="white"/>
<path d="M579.917 161.237C577.856 161.237 575.84 160.626 574.126 159.48C572.412 158.335 571.076 156.707 570.287 154.802C569.498 152.897 569.291 150.801 569.693 148.779C570.096 146.757 571.089 144.899 572.546 143.442C574.004 141.984 575.862 140.991 577.884 140.589C579.906 140.186 582.002 140.393 583.907 141.182C585.812 141.971 587.44 143.307 588.585 145.021C589.731 146.736 590.342 148.751 590.342 150.813C590.339 153.577 589.24 156.226 587.285 158.181C585.331 160.135 582.681 161.234 579.917 161.237V161.237ZM579.917 141.287C578.033 141.287 576.192 141.846 574.625 142.892C573.059 143.939 571.838 145.427 571.117 147.167C570.396 148.908 570.207 150.823 570.575 152.671C570.942 154.519 571.85 156.216 573.182 157.549C574.514 158.881 576.211 159.788 578.059 160.156C579.907 160.523 581.822 160.335 583.563 159.614C585.304 158.893 586.791 157.672 587.838 156.105C588.885 154.539 589.443 152.697 589.443 150.813C589.441 148.287 588.436 145.866 586.65 144.08C584.864 142.294 582.443 141.29 579.917 141.287V141.287Z" fill="white"/>
<path d="M582.812 153.152H581.723V154.651H580.365V153.152H577.023V152.117L580.613 146.974H581.723V152.063H582.812V153.152ZM580.365 152.063V149.141L578.338 152.063H580.365Z" fill="white"/>
<path d="M645.329 124.849C643.267 124.849 641.252 124.237 639.538 123.092C637.823 121.946 636.487 120.318 635.698 118.414C634.909 116.509 634.703 114.413 635.105 112.391C635.507 110.369 636.5 108.511 637.958 107.053C639.416 105.595 641.273 104.603 643.295 104.2C645.318 103.798 647.413 104.005 649.318 104.794C651.223 105.583 652.851 106.919 653.997 108.633C655.142 110.347 655.753 112.363 655.753 114.424C655.75 117.188 654.651 119.838 652.697 121.792C650.742 123.746 648.093 124.846 645.329 124.849ZM645.329 104.898C643.445 104.899 641.603 105.457 640.037 106.504C638.47 107.551 637.249 109.038 636.528 110.779C635.807 112.52 635.619 114.435 635.986 116.283C636.354 118.131 637.261 119.828 638.593 121.16C639.926 122.493 641.623 123.4 643.471 123.767C645.319 124.135 647.234 123.946 648.974 123.225C650.715 122.504 652.203 121.283 653.249 119.717C654.296 118.15 654.855 116.308 654.855 114.424C654.852 111.899 653.847 109.478 652.062 107.692C650.276 105.906 647.854 104.901 645.329 104.898Z" fill="white"/>
<path d="M646.882 113.621C647.243 113.821 647.539 114.12 647.733 114.484C647.94 114.877 648.044 115.317 648.035 115.761C648.045 116.228 647.925 116.689 647.69 117.093C647.455 117.482 647.11 117.794 646.698 117.988C646.23 118.208 645.717 118.317 645.2 118.306C644.715 118.305 644.234 118.223 643.777 118.063C643.352 117.926 642.96 117.704 642.623 117.411L643.087 116.397C643.689 116.895 644.441 117.176 645.221 117.195C645.623 117.223 646.019 117.093 646.326 116.834C646.575 116.55 646.711 116.185 646.709 115.808C646.707 115.43 646.567 115.067 646.316 114.786C646.175 114.655 646.009 114.554 645.829 114.488C645.648 114.423 645.456 114.393 645.264 114.403C644.972 114.401 644.683 114.458 644.413 114.57C644.147 114.681 643.908 114.849 643.712 115.06H642.871V110.543H647.679V111.621H644.229V113.713C644.638 113.441 645.119 113.302 645.609 113.314C646.053 113.305 646.491 113.41 646.882 113.621V113.621Z" fill="white"/>
<path d="M400.575 337.986C400.302 337.385 400.164 336.731 400.172 336.07C400.179 335.41 400.331 334.759 400.618 334.164C400.904 333.569 401.317 333.044 401.828 332.625C402.339 332.207 402.936 331.906 403.576 331.743L404.937 315.747L411.487 320.914L409.19 335.312C409.392 336.405 409.186 337.535 408.611 338.486C408.036 339.438 407.132 340.146 406.07 340.476C405.008 340.805 403.862 340.734 402.849 340.275C401.836 339.816 401.027 339.002 400.575 337.986H400.575Z" fill="#FFB8B8"/>
<path d="M404.787 330.064C404.316 330.002 403.881 329.775 403.561 329.424C403.24 329.074 403.053 328.621 403.033 328.146L402.275 309.993C402.002 303.469 403.33 296.977 406.143 291.083L412.867 276.993C413.317 276.146 413.964 275.418 414.752 274.87C415.54 274.323 416.447 273.971 417.399 273.844C418.322 273.714 419.263 273.809 420.142 274.121C421.021 274.433 421.811 274.953 422.446 275.637C422.768 275.981 423.057 276.354 423.31 276.751C423.817 277.574 424.111 278.511 424.164 279.476C424.218 280.442 424.029 281.405 423.616 282.279L413.305 310.446L412.512 328.797C412.5 329.075 412.431 329.347 412.308 329.597C412.186 329.847 412.014 330.069 411.802 330.249C411.589 330.43 411.342 330.564 411.076 330.645C410.81 330.725 410.529 330.749 410.253 330.717L404.814 330.068L404.787 330.064Z" fill="white"/>
<path d="M385.496 409.376L390.539 411.589L401.477 393.191L394.034 389.924L385.496 409.376Z" fill="#FFB8B8"/>
<path d="M384.932 407.165L394.864 411.524L394.865 411.524C395.696 411.889 396.447 412.414 397.075 413.069C397.704 413.724 398.197 414.497 398.526 415.342C398.856 416.188 399.016 417.09 398.997 417.998C398.978 418.905 398.78 419.8 398.415 420.631L398.325 420.837L382.064 413.7L384.932 407.165Z" fill="#212A3F"/>
<path d="M453.202 415.498H458.71L461.33 394.255L453.201 394.255L453.202 415.498Z" fill="#FFB8B8"/>
<path d="M451.797 413.7L462.643 413.7H462.644C463.552 413.7 464.45 413.879 465.289 414.226C466.128 414.573 466.89 415.083 467.532 415.724C468.173 416.366 468.683 417.128 469.03 417.967C469.377 418.805 469.556 419.704 469.556 420.612V420.836L451.797 420.837L451.797 413.7Z" fill="#212A3F"/>
<path d="M397.729 409.459C397.517 409.459 397.307 409.425 397.105 409.36L387.767 406.358C387.262 406.194 386.842 405.839 386.597 405.369C386.351 404.898 386.299 404.351 386.452 403.843L417.42 305.228L440.617 300.679L440.698 300.812C456.034 325.766 461.153 363.886 464.4 404.275C464.44 404.803 464.273 405.325 463.934 405.731C463.595 406.137 463.111 406.395 462.585 406.451L452.376 407.471C451.899 407.521 451.421 407.4 451.026 407.128C450.632 406.856 450.347 406.453 450.224 405.99L431.53 339.859C431.494 339.724 431.416 339.604 431.308 339.515C431.2 339.426 431.067 339.373 430.928 339.363C430.788 339.354 430.649 339.387 430.53 339.46C430.41 339.533 430.316 339.64 430.261 339.769L399.58 408.236C399.425 408.599 399.167 408.908 398.838 409.125C398.509 409.343 398.123 409.459 397.729 409.459V409.459Z" fill="#212A3F"/>
<path d="M429.405 265.74C435.499 265.74 440.439 260.8 440.439 254.706C440.439 248.612 435.499 243.672 429.405 243.672C423.311 243.672 418.371 248.612 418.371 254.706C418.371 260.8 423.311 265.74 429.405 265.74Z" fill="#FFB8B8"/>
<path d="M415.447 308.148L415.371 307.99C415.32 307.882 410.237 297.098 410.71 284.659C410.866 280.576 412.577 276.707 415.492 273.844C418.407 270.981 422.307 269.34 426.392 269.258V269.258C430.157 269.184 433.827 270.441 436.756 272.808C439.685 275.174 441.685 278.499 442.403 282.195C443.82 289.427 443.784 296.277 442.298 302.554L442.265 302.693L442.124 302.722L415.447 308.148Z" fill="white"/>
<path d="M471.702 323.714C471.049 323.617 470.425 323.378 469.874 323.014C469.323 322.651 468.858 322.17 468.513 321.607C468.167 321.044 467.949 320.413 467.875 319.757C467.8 319.1 467.87 318.436 468.08 317.81L455.371 308.001L463.261 305.294L474.12 315.023C475.149 315.445 475.987 316.23 476.475 317.229C476.964 318.228 477.069 319.371 476.771 320.442C476.473 321.513 475.793 322.438 474.859 323.041C473.924 323.644 472.801 323.883 471.702 323.714H471.702Z" fill="#FFB8B8"/>
<path d="M440.515 302.091L440.485 302.043L427.088 280.346C426.619 279.508 426.357 278.571 426.324 277.612C426.29 276.653 426.486 275.7 426.895 274.832C427.286 273.985 427.875 273.245 428.613 272.675C429.352 272.105 430.217 271.722 431.135 271.559V271.559C431.598 271.475 432.069 271.434 432.54 271.437C433.506 271.456 434.453 271.716 435.293 272.194C436.134 272.672 436.842 273.352 437.352 274.173L455.446 298.096L470.442 308.701C470.67 308.862 470.861 309.068 471.005 309.306C471.149 309.544 471.243 309.81 471.279 310.086C471.316 310.361 471.295 310.642 471.218 310.909C471.142 311.177 471.01 311.426 470.833 311.64L467.342 315.861C467.037 316.233 466.609 316.483 466.136 316.566C465.662 316.65 465.175 316.561 464.761 316.317L440.515 302.091Z" fill="white"/>
<path d="M427.432 254.021C428.245 252.684 430.04 252.306 431.598 252.458C433.156 252.611 434.671 253.158 436.236 253.146C440.583 253.113 443.939 247.815 442.111 243.87C440.612 240.636 436.869 239.215 433.483 238.101C426.383 235.763 418.227 233.518 411.785 237.307C409.732 238.551 408.048 240.32 406.907 242.432C405.766 244.544 405.21 246.922 405.296 249.321C405.44 252.303 406.583 255.367 405.617 258.192C404.502 261.452 400.968 263.201 397.629 264.047C391.775 265.53 385.603 265.291 379.713 266.621C373.822 267.951 367.786 271.483 366.198 277.309C365.155 281.136 366.244 285.256 368.046 288.79C369.885 292.395 372.44 295.586 375.555 298.169C378.671 300.752 382.281 302.672 386.164 303.811C390.047 304.95 394.122 305.284 398.139 304.793C402.156 304.303 406.031 302.997 409.525 300.956C416.647 296.798 421.788 289.77 424.853 282.115C426.591 277.649 427.814 273 428.5 268.257C429.186 263.818 428.604 259.331 427.36 255.015C427.301 254.853 427.277 254.681 427.29 254.51C427.302 254.339 427.351 254.172 427.432 254.021V254.021Z" fill="#212A3F"/>
<path d="M505.609 421H334.449C334.33 421 334.216 420.953 334.132 420.868C334.047 420.784 334 420.67 334 420.551C334 420.432 334.047 420.317 334.132 420.233C334.216 420.149 334.33 420.101 334.449 420.101H505.609C505.728 420.101 505.843 420.149 505.927 420.233C506.011 420.317 506.059 420.432 506.059 420.551C506.059 420.67 506.011 420.784 505.927 420.868C505.843 420.953 505.728 421 505.609 421Z" fill="#212A3F"/>
</g>
<defs>
<clipPath id="clip0">
<rect width="355.283" height="317" fill="white" transform="translate(334 104)"/>
</clipPath>
</defs>
</svg>
