<svg width="83" height="96" viewBox="0 0 83 96" fill="none" xmlns="http://www.w3.org/2000/svg">
<g clip-path="url(#clip0)">
<path d="M54.4711 0H1.84889C1.3587 0.00054283 0.888744 0.19551 0.542127 0.542127C0.195511 0.888743 0.000542831 1.3587 0 1.84889V72.96C0.000554852 73.4502 0.195526 73.9202 0.54214 74.2668C0.888754 74.6134 1.3587 74.8084 1.84889 74.8089H54.4711C54.9613 74.8083 55.4313 74.6134 55.7779 74.2668C56.1245 73.9201 56.3195 73.4502 56.32 72.96V1.84889C56.3195 1.3587 56.1245 0.888754 55.7779 0.54214C55.4313 0.195526 54.9613 0.000554852 54.4711 0V0Z" fill="#F2F2F2"/>
<path d="M3.47444 2.27556C3.13244 2.28136 2.8067 2.42253 2.56863 2.66813C2.33056 2.91373 2.19959 3.24371 2.20445 3.58573V71.2232C2.19959 71.5652 2.33056 71.8951 2.56863 72.1407C2.8067 72.3863 3.13244 72.5275 3.47444 72.5333H52.8456C53.1876 72.5275 53.5133 72.3863 53.7514 72.1407C53.9895 71.8951 54.1204 71.5652 54.1156 71.2232V3.58573C54.1204 3.24371 53.9895 2.91373 53.7514 2.66813C53.5133 2.42253 53.1876 2.28136 52.8456 2.27556H3.47444Z" fill="white"/>
<path d="M6.04443 5.40444C5.57388 5.40444 5.1911 5.83643 5.1911 6.36749V15.6769C5.1911 16.208 5.57388 16.64 6.04443 16.64H50.2755C50.746 16.64 51.1288 16.208 51.1288 15.6769V6.36749C51.1288 5.83643 50.746 5.40444 50.2755 5.40444H6.04443Z" fill="#E6E6E6"/>
<path d="M6.04445 21.1555C5.81497 21.1591 5.59627 21.2535 5.4363 21.418C5.27634 21.5826 5.18816 21.8039 5.19111 22.0334V41.931C5.18816 42.1605 5.27634 42.3818 5.4363 42.5464C5.59627 42.7109 5.81497 42.8053 6.04445 42.8089H50.2756C50.5051 42.8053 50.7238 42.7109 50.8837 42.5464C51.0437 42.3818 51.1319 42.1605 51.1289 41.931V22.0334C51.1319 21.8039 51.0437 21.5826 50.8837 21.418C50.7238 21.2535 50.5051 21.1591 50.2756 21.1555H6.04445Z" fill="#E6E6E6"/>
<path d="M45.6533 6.71999H10.6667V8.71111H45.6533V6.71999Z" fill="white"/>
<path d="M45.7245 10.9156H10.7378V11.84H45.7245V10.9156Z" fill="white"/>
<path d="M45.7245 12.5511H10.7378V13.4756H45.7245V12.5511Z" fill="white"/>
<path d="M45.7245 14.1867H10.7378V15.1111H45.7245V14.1867Z" fill="white"/>
<path d="M31.4542 42.8444H47.5553C47.6578 42.8444 47.758 42.814 47.8433 42.7571C47.9285 42.7001 47.9949 42.6192 48.0342 42.5245C48.0734 42.4298 48.0837 42.3256 48.0637 42.225C48.0437 42.1245 47.9943 42.0321 47.9219 41.9596L37.6169 31.6547C37.5197 31.5577 37.3879 31.5032 37.2504 31.5032C37.113 31.5032 36.9812 31.5577 36.884 31.6547L34.3214 34.2173C34.2204 34.3182 34.1006 34.3983 33.9687 34.453C33.8368 34.5076 33.6954 34.5358 33.5527 34.5358C33.4099 34.5358 33.2685 34.5076 33.1366 34.453C33.0047 34.3983 32.8849 34.3182 32.784 34.2173L24.7576 26.191C24.6603 26.0939 24.5285 26.0394 24.3911 26.0394C24.2537 26.0394 24.1219 26.0939 24.0246 26.191L8.32703 41.8885C8.25455 41.961 8.2052 42.0534 8.18521 42.1539C8.16522 42.2545 8.1755 42.3587 8.21473 42.4534C8.25396 42.5481 8.32039 42.629 8.40562 42.686C8.49085 42.7429 8.59105 42.7733 8.69355 42.7733H31.4749L31.4542 42.8444Z" fill="white"/>
<path d="M12.3022 27.84C13.4019 27.84 14.2933 26.9486 14.2933 25.8489C14.2933 24.7492 13.4019 23.8578 12.3022 23.8578C11.2026 23.8578 10.3111 24.7492 10.3111 25.8489C10.3111 26.9486 11.2026 27.84 12.3022 27.84Z" fill="white"/>
<path d="M6.04445 47.4667C5.81497 47.4702 5.59627 47.5646 5.4363 47.7292C5.27634 47.8937 5.18816 48.115 5.19111 48.3445V68.2421C5.18816 68.4716 5.27634 68.6929 5.4363 68.8574C5.59627 69.022 5.81497 69.1164 6.04445 69.12H50.2756C50.5051 69.1164 50.7238 69.022 50.8837 68.8574C51.0437 68.6929 51.1319 68.4716 51.1289 68.2421V48.3445C51.1319 48.115 51.0437 47.8937 50.8837 47.7292C50.7238 47.5646 50.5051 47.4702 50.2756 47.4667H6.04445Z" fill="#E6E6E6"/>
<path d="M31.4542 69.1556H47.5554C47.6579 69.1555 47.7581 69.1251 47.8433 69.0682C47.9285 69.0112 47.9949 68.9302 48.0342 68.8355C48.0734 68.7408 48.0837 68.6366 48.0637 68.5361C48.0437 68.4355 47.9944 68.3432 47.9219 68.2707L37.6169 57.9658C37.5196 57.8688 37.3878 57.8144 37.2505 57.8144C37.1131 57.8144 36.9813 57.8688 36.884 57.9658L34.3214 60.5283C34.2205 60.6293 34.1006 60.7095 33.9687 60.7641C33.8368 60.8188 33.6954 60.8469 33.5526 60.8469C33.4099 60.8469 33.2685 60.8188 33.1366 60.7641C33.0047 60.7095 32.8848 60.6293 32.7839 60.5283L24.7576 52.5021C24.6603 52.4051 24.5285 52.3506 24.3911 52.3506C24.2537 52.3506 24.1219 52.4051 24.0246 52.5021L8.32702 68.1996C8.25455 68.2721 8.2052 68.3644 8.18521 68.465C8.16523 68.5655 8.17549 68.6697 8.21472 68.7644C8.25395 68.8591 8.32038 68.9401 8.40561 68.9971C8.49084 69.054 8.59104 69.0844 8.69355 69.0844H31.4749L31.4542 69.1556Z" fill="white"/>
<path d="M12.3022 54.1511C13.4019 54.1511 14.2933 53.2597 14.2933 52.16C14.2933 51.0603 13.4019 50.1689 12.3022 50.1689C11.2026 50.1689 10.3111 51.0603 10.3111 52.16C10.3111 53.2597 11.2026 54.1511 12.3022 54.1511Z" fill="white"/>
<path d="M20.3378 16.3556C19.9984 16.356 19.6731 16.4909 19.4331 16.7309C19.1932 16.9709 19.0582 17.2962 19.0578 17.6356V88.7466C19.0582 89.086 19.1932 89.4113 19.4331 89.6513C19.6731 89.8913 19.9984 90.0262 20.3378 90.0266H72.96C73.2994 90.0262 73.6247 89.8913 73.8647 89.6513C74.1047 89.4113 74.2396 89.086 74.24 88.7466V17.6356C74.2396 17.2962 74.1046 16.9708 73.8647 16.7309C73.6247 16.4909 73.2994 16.3559 72.96 16.3556H20.3378Z" fill="#E6E6E6"/>
<path d="M21.8922 18.3467C21.5502 18.3525 21.2245 18.4937 20.9864 18.7393C20.7483 18.9849 20.6174 19.3148 20.6222 19.6569V87.2943C20.6174 87.6363 20.7483 87.9663 20.9864 88.2119C21.2245 88.4575 21.5502 88.5987 21.8922 88.6045H71.2634C71.6054 88.5987 71.9311 88.4575 72.1692 88.2119C72.4073 87.9663 72.5382 87.6363 72.5334 87.2943V19.6569C72.5382 19.3148 72.4073 18.9849 72.1692 18.7393C71.9311 18.4937 71.6054 18.3525 71.2634 18.3467H21.8922Z" fill="white"/>
<path d="M29.6178 28.186C29.467 28.1861 29.3224 28.2461 29.2157 28.3528C29.1091 28.4594 29.0491 28.604 29.0489 28.7549V31.3659C29.0491 31.5168 29.1091 31.6614 29.2157 31.768C29.3224 31.8747 29.467 31.9347 29.6178 31.9348H63.1823C63.3331 31.9347 63.4777 31.8747 63.5844 31.768C63.691 31.6614 63.751 31.5168 63.7512 31.3659V28.7549C63.751 28.604 63.691 28.4594 63.5844 28.3528C63.4777 28.2461 63.3331 28.1861 63.1823 28.186H29.6178Z" fill="#8AB839"/>
<path d="M29.4045 36.8269C29.3668 36.8269 29.3306 36.8419 29.3039 36.8686C29.2773 36.8953 29.2623 36.9314 29.2622 36.9691V37.9884C29.2623 38.0261 29.2773 38.0623 29.3039 38.089C29.3306 38.1156 29.3668 38.1306 29.4045 38.1307H63.5378C63.5755 38.1306 63.6117 38.1156 63.6383 38.089C63.665 38.0623 63.68 38.0262 63.68 37.9884V36.9691C63.68 36.9314 63.665 36.8952 63.6383 36.8686C63.6117 36.8419 63.5755 36.8269 63.5378 36.8269H29.4045Z" fill="#CCCCCC"/>
<path d="M29.4045 40.1399C29.3668 40.1399 29.3306 40.1549 29.3039 40.1816C29.2773 40.2083 29.2623 40.2444 29.2622 40.2821V41.3014C29.2623 41.3391 29.2773 41.3753 29.3039 41.4019C29.3306 41.4286 29.3668 41.4436 29.4045 41.4436H63.5378C63.5755 41.4436 63.6117 41.4286 63.6383 41.4019C63.665 41.3753 63.68 41.3391 63.68 41.3014V40.2821C63.68 40.2444 63.665 40.2083 63.6383 40.1816C63.6117 40.1549 63.5755 40.1399 63.5378 40.1399H29.4045Z" fill="#CCCCCC"/>
<path d="M29.4045 43.453C29.3668 43.453 29.3306 43.468 29.3039 43.4947C29.2773 43.5214 29.2623 43.5575 29.2622 43.5952V44.6144C29.2623 44.6521 29.2773 44.6883 29.3039 44.7149C29.3306 44.7416 29.3668 44.7566 29.4045 44.7567H63.5378C63.5755 44.7566 63.6117 44.7416 63.6383 44.715C63.665 44.6883 63.68 44.6521 63.68 44.6144V43.5952C63.68 43.5575 63.665 43.5213 63.6383 43.4947C63.6117 43.468 63.5755 43.453 63.5378 43.453H29.4045Z" fill="#CCCCCC"/>
<path d="M29.3333 50.0709C29.2956 50.071 29.2595 50.086 29.2328 50.1126C29.2061 50.1393 29.1911 50.1754 29.1911 50.2131V51.2323C29.1911 51.27 29.2061 51.3062 29.2328 51.3329C29.2595 51.3595 29.2956 51.3745 29.3333 51.3746H63.4667C63.5044 51.3745 63.5405 51.3595 63.5672 51.3329C63.5939 51.3062 63.6089 51.2701 63.6089 51.2323V50.2131C63.6089 50.1754 63.5939 50.1393 63.5672 50.1126C63.5405 50.0859 63.5044 50.0709 63.4667 50.0709H29.3333Z" fill="#CCCCCC"/>
<path d="M29.3333 53.3839C29.2956 53.384 29.2595 53.399 29.2328 53.4257C29.2061 53.4523 29.1911 53.4885 29.1911 53.5262V54.5454C29.1911 54.5831 29.2061 54.6192 29.2328 54.6459C29.2595 54.6726 29.2956 54.6876 29.3333 54.6876H63.4667C63.5044 54.6876 63.5405 54.6726 63.5672 54.6459C63.5939 54.6192 63.6089 54.5831 63.6089 54.5454V53.5262C63.6089 53.4885 63.5939 53.4523 63.5672 53.4256C63.5405 53.399 63.5044 53.384 63.4667 53.3839H29.3333Z" fill="#CCCCCC"/>
<path d="M29.3333 56.697C29.2956 56.697 29.2595 56.712 29.2328 56.7387C29.2061 56.7653 29.1911 56.8015 29.1911 56.8392V57.8585C29.1911 57.8962 29.2061 57.9323 29.2328 57.959C29.2595 57.9857 29.2956 58.0006 29.3333 58.0007H63.4667C63.5044 58.0007 63.5406 57.9857 63.5672 57.959C63.5939 57.9323 63.6089 57.8962 63.6089 57.8585V56.8392C63.6089 56.8015 63.5939 56.7653 63.5672 56.7387C63.5406 56.712 63.5044 56.697 63.4667 56.697H29.3333Z" fill="#CCCCCC"/>
<path d="M29.3333 60.0264C29.2956 60.0264 29.2595 60.0414 29.2328 60.0681C29.2061 60.0947 29.1911 60.1309 29.1911 60.1686V61.1879C29.1911 61.2256 29.2061 61.2618 29.2328 61.2884C29.2595 61.3151 29.2956 61.3301 29.3333 61.3301H63.4667C63.5044 61.3301 63.5406 61.3151 63.5672 61.2885C63.5939 61.2618 63.6089 61.2256 63.6089 61.1879V60.1686C63.6089 60.1309 63.5939 60.0947 63.5672 60.0681C63.5406 60.0414 63.5044 60.0264 63.4667 60.0264H29.3333Z" fill="#CCCCCC"/>
<path d="M29.3333 63.3395C29.2956 63.3395 29.2595 63.3545 29.2328 63.3812C29.2061 63.4078 29.1911 63.444 29.1911 63.4817V64.501C29.1911 64.5387 29.2061 64.5748 29.2328 64.6015C29.2595 64.6282 29.2956 64.6432 29.3333 64.6432H63.4667C63.5044 64.6432 63.5406 64.6282 63.5672 64.6015C63.5939 64.5748 63.6089 64.5387 63.6089 64.501V63.4817C63.6089 63.444 63.5939 63.4078 63.5672 63.3811C63.5406 63.3545 63.5044 63.3395 63.4667 63.3395H29.3333Z" fill="#CCCCCC"/>
<path d="M29.3333 66.6525C29.2956 66.6525 29.2595 66.6675 29.2328 66.6942C29.2061 66.7209 29.1911 66.757 29.1911 66.7947V67.814C29.1911 67.8517 29.2061 67.8879 29.2328 67.9145C29.2595 67.9412 29.2956 67.9562 29.3333 67.9562H63.4667C63.5044 67.9562 63.5406 67.9412 63.5672 67.9145C63.5939 67.8879 63.6089 67.8517 63.6089 67.814V66.7947C63.6089 66.757 63.5939 66.7208 63.5672 66.6942C63.5406 66.6675 63.5044 66.6525 63.4667 66.6525H29.3333Z" fill="#CCCCCC"/>
<path d="M29.3333 69.982C29.2956 69.982 29.2595 69.997 29.2328 70.0237C29.2061 70.0504 29.1911 70.0865 29.1911 70.1242V71.1435C29.1911 71.1812 29.2061 71.2174 29.2328 71.244C29.2595 71.2707 29.2956 71.2857 29.3333 71.2857H63.4667C63.5044 71.2857 63.5406 71.2707 63.5672 71.244C63.5939 71.2174 63.6089 71.1812 63.6089 71.1435V70.1242C63.6089 70.0865 63.5939 70.0504 63.5672 70.0237C63.5406 69.997 63.5044 69.982 63.4667 69.982H29.3333Z" fill="#CCCCCC"/>
<path d="M29.3333 73.295C29.2956 73.2951 29.2595 73.3101 29.2328 73.3367C29.2061 73.3634 29.1911 73.3995 29.1911 73.4372V74.4565C29.1911 74.4942 29.2061 74.5304 29.2328 74.5571C29.2595 74.5837 29.2956 74.5987 29.3333 74.5988H63.4667C63.5044 74.5987 63.5406 74.5837 63.5672 74.5571C63.5939 74.5304 63.6089 74.4943 63.6089 74.4565V73.4372C63.6089 73.3995 63.5939 73.3634 63.5672 73.3367C63.5406 73.31 63.5044 73.295 63.4667 73.295H29.3333Z" fill="#CCCCCC"/>
<path d="M29.3333 76.608C29.2956 76.6081 29.2595 76.6231 29.2328 76.6497C29.2061 76.6764 29.1911 76.7125 29.1911 76.7503V77.7696C29.1911 77.8073 29.2061 77.8434 29.2328 77.8701C29.2595 77.8968 29.2956 77.9117 29.3333 77.9118H63.4667C63.5044 77.9118 63.5406 77.8968 63.5672 77.8701C63.5939 77.8434 63.6089 77.8073 63.6089 77.7696V76.7503C63.6089 76.7125 63.5939 76.6764 63.5672 76.6497C63.5406 76.623 63.5044 76.6081 63.4667 76.608H29.3333Z" fill="#CCCCCC"/>
<path d="M71.8223 96C77.5562 96 82.2045 91.3517 82.2045 85.6178C82.2045 79.8838 77.5562 75.2356 71.8223 75.2356C66.0883 75.2356 61.4401 79.8838 61.4401 85.6178C61.4401 91.3517 66.0883 96 71.8223 96Z" fill="#8AB839"/>
<path d="M70.833 90.0003L67.7254 86.005L69.5325 84.5993L71.0039 86.4912L75.9744 81.2442L77.6366 82.8188L70.833 90.0003Z" fill="white"/>
</g>
<defs>
<clipPath id="clip0">
<rect width="82.2045" height="96" fill="white"/>
</clipPath>
</defs>
</svg>
