<svg width="178" height="96" viewBox="0 0 178 96" fill="none" xmlns="http://www.w3.org/2000/svg">
<g clip-path="url(#clip0)">
<path opacity="0.1" d="M177.904 61.6228C177.907 64.2307 177.548 66.8264 176.839 69.3361C176.154 71.7556 175.146 74.0718 173.842 76.2222C173.842 84.0132 168.583 90.7469 160.949 93.9504C157.759 95.2756 154.337 95.9522 150.883 95.9409H33.7723C27.5129 95.9409 21.7124 94.2521 16.9553 91.3751C15.5939 90.5555 14.3024 89.625 13.094 88.593C7.8066 84.049 4.52843 77.7695 4.52843 70.8337C1.56099 66.2643 -0.0124814 60.9301 -4.89626e-05 55.4817C-4.89626e-05 44.0734 6.74757 34.2638 16.4141 29.9328C17.6977 29.358 19.0241 28.8838 20.3812 28.5146C20.8612 28.3839 21.3464 28.2668 21.8368 28.1631C23.144 27.8847 24.47 27.7028 25.8039 27.6188C26.286 27.5888 26.7706 27.5716 27.2579 27.5675H27.5254C28.0634 27.5675 28.5968 27.5862 29.1271 27.6173L29.3013 27.3218C29.5149 26.9652 29.7336 26.6121 29.9576 26.2628C30.3619 25.6262 30.7859 24.999 31.2296 24.3811C31.6941 23.729 32.1788 23.0872 32.6837 22.4559L32.8127 22.3003C33.0989 21.9437 33.3913 21.5912 33.6898 21.2429C34.6229 20.1553 35.6078 19.1005 36.6445 18.0782C47.8584 7.08673 65.4265 0.010994 85.1764 0.010994C100.544 0.010994 114.591 4.29531 125.351 11.3742C129.427 9.06741 134.032 7.85702 138.716 7.86118C153.915 7.86118 166.241 20.3596 166.241 35.7769C166.239 36.7524 166.187 37.7272 166.086 38.6974C169.749 41.291 172.736 44.7278 174.793 48.7177C176.85 52.7077 177.917 57.1338 177.904 61.6228Z" fill="#8AB839"/>
<path opacity="0.2" d="M58.3353 17.2648H54.3682V21.2319H58.3353V17.2648Z" fill="#8AB839"/>
<path opacity="0.2" d="M63.7579 17.2648H59.7908V21.2319H63.7579V17.2648Z" fill="#8AB839"/>
<path d="M69.1806 17.2648H65.2135V21.2319H69.1806V17.2648Z" fill="#8AB839"/>
<path opacity="0.2" d="M74.6017 17.2648H70.6346V21.2319H74.6017V17.2648Z" fill="#8AB839"/>
<path opacity="0.2" d="M80.0243 17.2648H76.0573V21.2319H80.0243V17.2648Z" fill="#8AB839"/>
<path opacity="0.2" d="M85.4455 17.2648H81.4784V21.2319H85.4455V17.2648Z" fill="#8AB839"/>
<path d="M90.8681 17.2648H86.9011V21.2319H90.8681V17.2648Z" fill="#8AB839"/>
<path opacity="0.2" d="M96.2909 17.2648H92.3237V21.2319H96.2909V17.2648Z" fill="#8AB839"/>
<path opacity="0.2" d="M101.712 17.2648H97.7449V21.2319H101.712V17.2648Z" fill="#8AB839"/>
<path opacity="0.2" d="M107.135 17.2648H103.168V21.2319H107.135V17.2648Z" fill="#8AB839"/>
<path opacity="0.2" d="M112.557 17.2648H108.59V21.2319H112.557V17.2648Z" fill="#8AB839"/>
<path opacity="0.2" d="M117.978 17.2648H114.011V21.2319H117.978V17.2648Z" fill="#8AB839"/>
<path opacity="0.2" d="M123.401 17.2648H119.434V21.2319H123.401V17.2648Z" fill="#8AB839"/>
<path d="M128.822 17.2648H124.855V21.2319H128.822V17.2648Z" fill="#8AB839"/>
<path opacity="0.2" d="M47.4915 22.2894H43.5244V26.2565H47.4915V22.2894Z" fill="#8AB839"/>
<path opacity="0.7" d="M52.9141 22.2894H48.947V26.2565H52.9141V22.2894Z" fill="#8AB839"/>
<path opacity="0.2" d="M58.3353 22.2894H54.3682V26.2565H58.3353V22.2894Z" fill="#8AB839"/>
<path opacity="0.4" d="M63.7579 22.2894H59.7908V26.2565H63.7579V22.2894Z" fill="#8AB839"/>
<path d="M69.1806 22.2894H65.2135V26.2565H69.1806V22.2894Z" fill="#8AB839"/>
<path opacity="0.4" d="M74.6017 22.2894H70.6346V26.2565H74.6017V22.2894Z" fill="#8AB839"/>
<path opacity="0.2" d="M80.0243 22.2894H76.0573V26.2565H80.0243V22.2894Z" fill="#8AB839"/>
<path opacity="0.4" d="M85.4455 22.2894H81.4784V26.2565H85.4455V22.2894Z" fill="#8AB839"/>
<path d="M90.8681 22.2894H86.9011V26.2565H90.8681V22.2894Z" fill="#8AB839"/>
<path opacity="0.4" d="M96.2909 22.2894H92.3237V26.2565H96.2909V22.2894Z" fill="#8AB839"/>
<path opacity="0.4" d="M101.712 22.2894H97.7449V26.2565H101.712V22.2894Z" fill="#8AB839"/>
<path opacity="0.2" d="M107.135 22.2894H103.168V26.2565H107.135V22.2894Z" fill="#8AB839"/>
<path opacity="0.4" d="M112.557 22.2894H108.59V26.2565H112.557V22.2894Z" fill="#8AB839"/>
<path opacity="0.4" d="M117.978 22.2894H114.011V26.2565H117.978V22.2894Z" fill="#8AB839"/>
<path opacity="0.2" d="M123.401 22.2894H119.434V26.2565H123.401V22.2894Z" fill="#8AB839"/>
<path opacity="0.2" d="M128.822 22.2894H124.855V26.2565H128.822V22.2894Z" fill="#8AB839"/>
<path opacity="0.4" d="M134.245 22.2894H130.278V26.2565H134.245V22.2894Z" fill="#8AB839"/>
<path opacity="0.2" d="M139.668 22.2894H135.7V26.2565H139.668V22.2894Z" fill="#8AB839"/>
<path d="M145.089 22.2894H141.121V26.2565H145.089V22.2894Z" fill="#8AB839"/>
<path d="M42.0703 27.3155H38.1033V31.2826H42.0703V27.3155Z" fill="#8AB839"/>
<path opacity="0.7" d="M47.4915 27.3155H43.5244V31.2826H47.4915V27.3155Z" fill="#8AB839"/>
<path opacity="0.7" d="M52.9141 27.3155H48.947V31.2826H52.9141V27.3155Z" fill="#8AB839"/>
<path opacity="0.2" d="M58.3353 27.3155H54.3682V31.2826H58.3353V27.3155Z" fill="#8AB839"/>
<path opacity="0.4" d="M63.7579 27.3155H59.7908V31.2826H63.7579V27.3155Z" fill="#8AB839"/>
<path opacity="0.4" d="M69.1806 27.3155H65.2135V31.2826H69.1806V27.3155Z" fill="#8AB839"/>
<path d="M74.6017 27.3155H70.6346V31.2826H74.6017V27.3155Z" fill="#8AB839"/>
<path opacity="0.2" d="M80.0243 27.3155H76.0573V31.2826H80.0243V27.3155Z" fill="#8AB839"/>
<path opacity="0.4" d="M85.4455 27.3155H81.4784V31.2826H85.4455V27.3155Z" fill="#8AB839"/>
<path d="M90.8681 27.3155H86.9011V31.2826H90.8681V27.3155Z" fill="#8AB839"/>
<path opacity="0.2" d="M96.2909 27.3155H92.3237V31.2826H96.2909V27.3155Z" fill="#8AB839"/>
<path opacity="0.4" d="M101.712 27.3155H97.7449V31.2826H101.712V27.3155Z" fill="#8AB839"/>
<path opacity="0.2" d="M107.135 27.3155H103.168V31.2826H107.135V27.3155Z" fill="#8AB839"/>
<path d="M112.557 27.3155H108.59V31.2826H112.557V27.3155Z" fill="#8AB839"/>
<path opacity="0.2" d="M117.978 27.3155H114.011V31.2826H117.978V27.3155Z" fill="#8AB839"/>
<path opacity="0.7" d="M123.401 27.3155H119.434V31.2826H123.401V27.3155Z" fill="#8AB839"/>
<path opacity="0.7" d="M128.822 27.3155H124.855V31.2826H128.822V27.3155Z" fill="#8AB839"/>
<path opacity="0.4" d="M134.245 27.3155H130.278V31.2826H134.245V27.3155Z" fill="#8AB839"/>
<path opacity="0.2" d="M139.668 27.3155H135.7V31.2826H139.668V27.3155Z" fill="#8AB839"/>
<path d="M145.089 27.3155H141.121V31.2826H145.089V27.3155Z" fill="#8AB839"/>
<path d="M150.511 27.3155H146.544V31.2826H150.511V27.3155Z" fill="#8AB839"/>
<path opacity="0.2" d="M31.225 32.34H27.2579V36.3071H31.225V32.34Z" fill="#8AB839"/>
<path opacity="0.2" d="M36.6477 32.34H32.6806V36.3071H36.6477V32.34Z" fill="#8AB839"/>
<path d="M42.0703 32.34H38.1033V36.3071H42.0703V32.34Z" fill="#8AB839"/>
<path opacity="0.7" d="M47.4915 32.34H43.5244V36.3071H47.4915V32.34Z" fill="#8AB839"/>
<path opacity="0.7" d="M52.9141 32.34H48.947V36.3071H52.9141V32.34Z" fill="#8AB839"/>
<path opacity="0.2" d="M58.3353 32.34H54.3682V36.3071H58.3353V32.34Z" fill="#8AB839"/>
<path opacity="0.2" d="M63.7579 32.34H59.7908V36.3071H63.7579V32.34Z" fill="#8AB839"/>
<path opacity="0.4" d="M69.1806 32.34H65.2135V36.3071H69.1806V32.34Z" fill="#8AB839"/>
<path opacity="0.4" d="M74.6017 32.34H70.6346V36.3071H74.6017V32.34Z" fill="#8AB839"/>
<path d="M80.0243 32.34H76.0573V36.3071H80.0243V32.34Z" fill="#8AB839"/>
<path opacity="0.2" d="M85.4455 32.34H81.4784V36.3071H85.4455V32.34Z" fill="#8AB839"/>
<path opacity="0.4" d="M90.8681 32.34H86.9011V36.3071H90.8681V32.34Z" fill="#8AB839"/>
<path opacity="0.4" d="M96.2909 32.34H92.3237V36.3071H96.2909V32.34Z" fill="#8AB839"/>
<path opacity="0.4" d="M101.712 32.34H97.7449V36.3071H101.712V32.34Z" fill="#8AB839"/>
<path opacity="0.4" d="M107.135 32.34H103.168V36.3071H107.135V32.34Z" fill="#8AB839"/>
<path opacity="0.2" d="M112.557 32.34H108.59V36.3071H112.557V32.34Z" fill="#8AB839"/>
<path opacity="0.2" d="M117.978 32.34H114.011V36.3071H117.978V32.34Z" fill="#8AB839"/>
<path opacity="0.2" d="M123.401 32.34H119.434V36.3071H123.401V32.34Z" fill="#8AB839"/>
<path opacity="0.2" d="M128.822 32.34H124.855V36.3071H128.822V32.34Z" fill="#8AB839"/>
<path opacity="0.7" d="M134.245 32.34H130.278V36.3071H134.245V32.34Z" fill="#8AB839"/>
<path opacity="0.7" d="M139.668 32.34H135.7V36.3071H139.668V32.34Z" fill="#8AB839"/>
<path opacity="0.4" d="M145.089 32.34H141.121V36.3071H145.089V32.34Z" fill="#8AB839"/>
<path opacity="0.2" d="M150.511 32.34H146.544V36.3071H150.511V32.34Z" fill="#8AB839"/>
<path d="M155.932 32.34H151.965V36.3071H155.932V32.34Z" fill="#8AB839"/>
<path opacity="0.2" d="M20.3813 37.3662H16.4142V41.3332H20.3813V37.3662Z" fill="#8AB839"/>
<path opacity="0.2" d="M25.8039 37.3662H21.8369V41.3332H25.8039V37.3662Z" fill="#8AB839"/>
<path opacity="0.4" d="M31.225 37.3662H27.2579V41.3332H31.225V37.3662Z" fill="#8AB839"/>
<path opacity="0.2" d="M36.6477 37.3662H32.6806V41.3332H36.6477V37.3662Z" fill="#8AB839"/>
<path opacity="0.2" d="M42.0703 37.3662H38.1033V41.3332H42.0703V37.3662Z" fill="#8AB839"/>
<path opacity="0.7" d="M47.4915 37.3662H43.5244V41.3332H47.4915V37.3662Z" fill="#8AB839"/>
<path opacity="0.7" d="M52.9141 37.3662H48.947V41.3332H52.9141V37.3662Z" fill="#8AB839"/>
<path opacity="0.2" d="M58.3353 37.3662H54.3682V41.3332H58.3353V37.3662Z" fill="#8AB839"/>
<path opacity="0.2" d="M63.7579 37.3662H59.7908V41.3332H63.7579V37.3662Z" fill="#8AB839"/>
<path opacity="0.4" d="M69.1806 37.3662H65.2135V41.3332H69.1806V37.3662Z" fill="#8AB839"/>
<path d="M74.6017 37.3662H70.6346V41.3332H74.6017V37.3662Z" fill="#8AB839"/>
<path opacity="0.2" d="M80.0243 37.3662H76.0573V41.3332H80.0243V37.3662Z" fill="#8AB839"/>
<path d="M85.4455 37.3662H81.4784V41.3332H85.4455V37.3662Z" fill="#8AB839"/>
<path d="M90.8681 37.3662H86.9011V41.3332H90.8681V37.3662Z" fill="#8AB839"/>
<path d="M96.2909 37.3662H92.3237V41.3332H96.2909V37.3662Z" fill="#8AB839"/>
<path opacity="0.2" d="M101.712 37.3662H97.7449V41.3332H101.712V37.3662Z" fill="#8AB839"/>
<path d="M107.135 37.3662H103.168V41.3332H107.135V37.3662Z" fill="#8AB839"/>
<path opacity="0.2" d="M112.557 37.3662H108.59V41.3332H112.557V37.3662Z" fill="#8AB839"/>
<path opacity="0.2" d="M117.978 37.3662H114.011V41.3332H117.978V37.3662Z" fill="#8AB839"/>
<path opacity="0.2" d="M123.401 37.3662H119.434V41.3332H123.401V37.3662Z" fill="#8AB839"/>
<path opacity="0.2" d="M128.822 37.3662H124.855V41.3332H128.822V37.3662Z" fill="#8AB839"/>
<path opacity="0.2" d="M134.245 37.3662H130.278V41.3332H134.245V37.3662Z" fill="#8AB839"/>
<path opacity="0.7" d="M139.668 37.3662H135.7V41.3332H139.668V37.3662Z" fill="#8AB839"/>
<path opacity="0.2" d="M145.089 37.3662H141.121V41.3332H145.089V37.3662Z" fill="#8AB839"/>
<path opacity="0.2" d="M150.511 37.3662H146.544V41.3332H150.511V37.3662Z" fill="#8AB839"/>
<path d="M155.932 37.3662H151.965V41.3332H155.932V37.3662Z" fill="#8AB839"/>
<path opacity="0.2" d="M20.3813 42.3907H16.4142V46.3578H20.3813V42.3907Z" fill="#8AB839"/>
<path opacity="0.2" d="M25.8039 42.3907H21.8369V46.3578H25.8039V42.3907Z" fill="#8AB839"/>
<path opacity="0.2" d="M31.225 42.3907H27.2579V46.3578H31.225V42.3907Z" fill="#8AB839"/>
<path opacity="0.4" d="M36.6477 42.3907H32.6806V46.3578H36.6477V42.3907Z" fill="#8AB839"/>
<path opacity="0.2" d="M42.0703 42.3907H38.1033V46.3578H42.0703V42.3907Z" fill="#8AB839"/>
<path opacity="0.2" d="M47.4915 42.3907H43.5244V46.3578H47.4915V42.3907Z" fill="#8AB839"/>
<path opacity="0.7" d="M52.9141 42.3907H48.947V46.3578H52.9141V42.3907Z" fill="#8AB839"/>
<path opacity="0.2" d="M58.3353 42.3907H54.3682V46.3578H58.3353V42.3907Z" fill="#8AB839"/>
<path opacity="0.2" d="M63.7579 42.3907H59.7908V46.3578H63.7579V42.3907Z" fill="#8AB839"/>
<path opacity="0.2" d="M69.1806 42.3907H65.2135V46.3578H69.1806V42.3907Z" fill="#8AB839"/>
<path d="M74.6017 42.3907H70.6346V46.3578H74.6017V42.3907Z" fill="#8AB839"/>
<path opacity="0.2" d="M80.0243 42.3907H76.0573V46.3578H80.0243V42.3907Z" fill="#8AB839"/>
<path d="M85.4455 42.3907H81.4784V46.3578H85.4455V42.3907Z" fill="#8AB839"/>
<path d="M90.8681 42.3907H86.9011V46.3578H90.8681V42.3907Z" fill="#8AB839"/>
<path opacity="0.2" d="M96.2909 42.3907H92.3237V46.3578H96.2909V42.3907Z" fill="#8AB839"/>
<path opacity="0.2" d="M101.712 42.3907H97.7449V46.3578H101.712V42.3907Z" fill="#8AB839"/>
<path opacity="0.2" d="M107.135 42.3907H103.168V46.3578H107.135V42.3907Z" fill="#8AB839"/>
<path opacity="0.2" d="M112.557 42.3907H108.59V46.3578H112.557V42.3907Z" fill="#8AB839"/>
<path opacity="0.2" d="M117.978 42.3907H114.011V46.3578H117.978V42.3907Z" fill="#8AB839"/>
<path opacity="0.2" d="M123.401 42.3907H119.434V46.3578H123.401V42.3907Z" fill="#8AB839"/>
<path opacity="0.2" d="M128.822 42.3907H124.855V46.3578H128.822V42.3907Z" fill="#8AB839"/>
<path opacity="0.2" d="M134.245 42.3907H130.278V46.3578H134.245V42.3907Z" fill="#8AB839"/>
<path opacity="0.2" d="M139.668 42.3907H135.7V46.3578H139.668V42.3907Z" fill="#8AB839"/>
<path opacity="0.2" d="M145.089 42.3907H141.121V46.3578H145.089V42.3907Z" fill="#8AB839"/>
<path opacity="0.4" d="M150.511 42.3907H146.544V46.3578H150.511V42.3907Z" fill="#8AB839"/>
<path opacity="0.7" d="M20.3813 47.4168H16.4142V51.3839H20.3813V47.4168Z" fill="#8AB839"/>
<path opacity="0.7" d="M25.8039 47.4168H21.8369V51.3839H25.8039V47.4168Z" fill="#8AB839"/>
<path opacity="0.7" d="M31.225 47.4168H27.2579V51.3839H31.225V47.4168Z" fill="#8AB839"/>
<path opacity="0.7" d="M36.6477 47.4168H32.6806V51.3839H36.6477V47.4168Z" fill="#8AB839"/>
<path opacity="0.7" d="M42.0703 47.4168H38.1033V51.3839H42.0703V47.4168Z" fill="#8AB839"/>
<path opacity="0.2" d="M47.4915 47.4168H43.5244V51.3839H47.4915V47.4168Z" fill="#8AB839"/>
<path opacity="0.2" d="M52.9141 47.4168H48.947V51.3839H52.9141V47.4168Z" fill="#8AB839"/>
<path opacity="0.2" d="M58.3353 47.4168H54.3682V51.3839H58.3353V47.4168Z" fill="#8AB839"/>
<path opacity="0.2" d="M63.7579 47.4168H59.7908V51.3839H63.7579V47.4168Z" fill="#8AB839"/>
<path opacity="0.2" d="M69.1806 47.4168H65.2135V51.3839H69.1806V47.4168Z" fill="#8AB839"/>
<path opacity="0.2" d="M74.6017 47.4168H70.6346V51.3839H74.6017V47.4168Z" fill="#8AB839"/>
<path d="M80.0243 47.4168H76.0573V51.3839H80.0243V47.4168Z" fill="#8AB839"/>
<path opacity="0.2" d="M85.4455 47.4168H81.4784V51.3839H85.4455V47.4168Z" fill="#8AB839"/>
<path opacity="0.2" d="M90.8681 47.4168H86.9011V51.3839H90.8681V47.4168Z" fill="#8AB839"/>
<path opacity="0.2" d="M96.2909 47.4168H92.3237V51.3839H96.2909V47.4168Z" fill="#8AB839"/>
<path d="M101.712 47.4168H97.7449V51.3839H101.712V47.4168Z" fill="#8AB839"/>
<path opacity="0.2" d="M107.135 47.4168H103.168V51.3839H107.135V47.4168Z" fill="#8AB839"/>
<path opacity="0.2" d="M112.557 47.4168H108.59V51.3839H112.557V47.4168Z" fill="#8AB839"/>
<path opacity="0.2" d="M117.978 47.4168H114.011V51.3839H117.978V47.4168Z" fill="#8AB839"/>
<path opacity="0.2" d="M123.401 47.4168H119.434V51.3839H123.401V47.4168Z" fill="#8AB839"/>
<path opacity="0.2" d="M128.822 47.4168H124.855V51.3839H128.822V47.4168Z" fill="#8AB839"/>
<path opacity="0.2" d="M134.245 47.4168H130.278V51.3839H134.245V47.4168Z" fill="#8AB839"/>
<path opacity="0.2" d="M139.668 47.4168H135.7V51.3839H139.668V47.4168Z" fill="#8AB839"/>
<path opacity="0.2" d="M145.089 47.4168H141.121V51.3839H145.089V47.4168Z" fill="#8AB839"/>
<path d="M114.226 62.0115C117.221 62.0115 119.649 59.5837 119.649 56.5889C119.649 53.594 117.221 51.1662 114.226 51.1662C111.231 51.1662 108.803 53.594 108.803 56.5889C108.803 59.5837 111.231 62.0115 114.226 62.0115Z" fill="#767D9F"/>
<path d="M113.944 49.6904C114.486 52.0521 114.945 54.4314 115.322 56.8283C115.436 57.5406 115.537 58.2917 115.279 58.9651C115.063 59.5265 114.622 59.965 114.277 60.4564C113.932 60.9478 113.671 61.5776 113.881 62.1406C114.091 62.7035 114.703 63.0114 115.288 63.1701C116.961 63.621 118.745 63.2929 120.411 62.8046C121.165 62.6105 121.888 62.311 122.558 61.9151C123.264 61.4672 123.843 60.8452 124.375 60.2045C126.802 57.2607 128.391 53.7275 129.887 50.216C128.926 50.3035 127.958 50.161 127.063 49.8003C126.167 49.4396 125.371 48.871 124.738 48.1415C124.126 47.4215 123.676 46.4185 124.022 45.5383C123.009 46.0934 121.807 46.1308 120.717 46.5102C120.041 46.7684 119.39 47.0886 118.773 47.4666C118.029 47.8968 117.288 48.3354 116.552 48.7822C115.711 49.2892 114.923 49.7402 113.944 49.6904Z" fill="#AE6E79"/>
<path d="M125.286 53.7617C124.336 55.6107 123.099 57.3882 121.334 58.4892C119.569 59.5902 117.193 59.8888 115.425 58.8002C114.554 58.2684 113.895 57.4597 113.134 56.7786C112.374 56.0974 111.424 55.5143 110.402 55.6029C109.276 55.7009 108.394 56.5795 107.64 57.4208C106.495 58.6991 105.39 60.0319 104.58 61.545C103.024 64.453 102.656 67.8525 102.724 71.1493C102.793 74.4462 103.27 77.7259 103.281 81.0227C103.297 85.0784 102.609 89.1015 101.914 93.0966C108.306 92.3097 114.705 94.0296 121.11 94.6812C125.21 95.1027 129.34 95.0933 133.461 95.0825C134.186 95.0825 134.957 95.0638 135.56 94.6626C135.929 94.3935 136.227 94.0392 136.43 93.63C136.999 92.5803 137.228 91.3829 137.386 90.1994C137.789 87.2105 137.801 84.1843 137.812 81.1674C137.84 73.8583 137.867 66.5229 136.938 59.2714C136.71 57.4877 136.417 55.6947 135.733 54.026C135.049 52.3574 133.932 50.8225 132.371 49.9283C131.368 49.3529 129.043 48.3514 127.861 48.9315C126.535 49.5784 125.922 52.5238 125.286 53.7617Z" fill="#767D9F"/>
<path d="M125.759 74.4011C125.517 69.8912 124.536 65.0782 126.625 61.0753C127.138 60.0925 125.297 58.8655 125.866 57.9138C126.56 56.7534 127.087 55.5005 127.43 54.1924C127.548 53.743 127.643 53.2671 127.531 52.8161C127.325 51.9935 126.511 51.5036 125.821 51.0029C125.059 50.4493 124.667 48.762 124.421 47.8491C124.175 46.9363 126.376 48.0357 127.261 47.7107C128.489 47.2613 130.051 47.5443 131.276 48C131.96 48.2519 132.704 48.2737 133.433 48.2923C134.85 48.3297 136.271 48.3654 137.677 48.1913C138.308 48.1119 138.941 47.9922 139.576 48.028C141.195 48.1197 142.602 49.227 143.56 50.5364C144.518 51.8458 145.127 53.3713 145.913 54.7896C146.567 55.9715 147.348 57.088 147.906 58.3181C148.401 59.4067 148.713 60.5761 149.023 61.7394L149.821 64.7236C149.96 65.1505 150.027 65.598 150.017 66.047C149.976 66.5244 149.765 66.9692 149.55 67.3937C148.739 68.9673 147.766 70.4521 146.647 71.8242C144.969 73.8816 142.932 75.7369 141.935 78.2002C141.546 79.1597 141.33 80.1798 141.132 81.1969C140.336 85.2646 139.77 89.374 139.437 93.5056C137.62 92.6647 135.715 92.0279 133.758 91.6068C132.782 91.398 131.796 91.2423 130.803 91.1402C129.934 91.05 128.813 91.2211 127.985 90.9847C126.601 90.5913 126.449 88.2508 126.239 87.0254C125.903 85.0738 125.836 83.0879 125.824 81.116C125.808 78.8735 125.878 76.6357 125.759 74.4011Z" fill="#212A3F"/>
<path d="M95.3639 65.9677C96.0186 69.7 96.7402 73.4432 98.1631 76.9499C98.1274 76.9841 98.0916 77.0153 98.0558 77.0464C97.9299 77.1537 97.7992 77.2547 97.6624 77.3574C97.3436 77.5813 96.9937 77.771 96.7293 78.0634C96.6292 78.1753 96.5502 78.3044 96.4961 78.4444C96.4472 78.5538 96.422 78.6722 96.422 78.792C96.422 78.9117 96.4472 79.0302 96.4961 79.1395C95.7543 79.4677 94.8927 79.3666 94.0608 79.3355C93.3438 79.309 92.6487 79.3355 92.0733 79.7289C91.274 80.2794 91.033 81.3369 90.9039 82.298C90.8562 82.6484 90.8152 82.9993 90.781 83.3508C90.7479 83.6773 90.7209 84.005 90.7002 84.3336C90.6297 85.4208 90.6198 86.5111 90.6706 87.5993C90.6789 87.7984 90.6898 87.9974 90.7033 88.1965C88.1622 88.1358 85.8467 86.8109 83.6555 85.5233C83.1548 85.2293 82.6385 84.9199 82.3134 84.4347C82.014 83.9582 81.8872 83.3933 81.9542 82.8345C81.9542 82.7552 81.9682 82.679 81.9791 82.5981C82.0487 82.1366 82.1681 81.684 82.3352 81.2483C83.0208 79.3921 84.0313 77.6728 85.3195 76.1708C85.8762 75.5208 86.5029 74.8847 86.7626 74.0683C86.8761 73.7122 86.9181 73.3343 87.0332 72.9797C87.5495 71.4433 89.4125 70.717 90.0501 69.2257C90.2056 68.8696 90.2772 68.4792 90.47 68.1371C90.6436 67.8528 90.8676 67.6025 91.1309 67.3984C91.2445 67.3036 91.3626 67.2118 91.4793 67.1201C92.572 66.2637 93.6248 65.3592 94.6377 64.4064C94.8264 64.2291 95.013 64.0498 95.1975 63.8683C95.1729 64.5722 95.2287 65.2766 95.3639 65.9677Z" fill="#212A3F"/>
<path d="M111.035 54.9296C110.811 55.1659 110.568 55.3883 110.33 55.6091L110.267 55.6667L110.015 55.9C109.557 56.2946 109.162 56.7553 108.841 57.2669L108.814 57.3104C108.021 58.7303 108.315 60.4782 108.536 62.0908C108.81 64.1005 108.933 66.1278 108.904 68.1558C108.864 70.955 108.534 73.7355 108.528 76.5316C108.528 77.1661 108.542 77.799 108.57 78.4335C108.615 79.4645 108.693 80.494 108.786 81.5235C108.887 82.6525 109.009 83.78 109.122 84.9074C109.212 85.7798 109.298 86.6507 109.369 87.5215C109.405 87.9725 109.439 88.422 109.467 88.8729C109.5 89.4017 109.526 89.932 109.542 90.4607C109.553 90.7966 109.559 91.131 109.559 91.4669C109.559 91.6581 109.559 91.8479 109.559 92.0376C109.559 92.4015 109.549 92.7643 109.529 93.1262C109.509 93.5917 109.477 94.0582 109.435 94.5258C109.386 95.0343 109.301 95.5895 108.943 95.9471C108.921 95.9689 108.898 95.9891 108.875 96.0093L108.371 95.9471C104.898 95.5313 101.391 95.4688 97.905 95.7605C97.9812 95.2349 98.0512 94.7108 98.1196 94.1836C98.1507 93.9348 98.1818 93.6844 98.2113 93.4341C98.2456 93.1479 98.2782 92.8618 98.3093 92.5757C98.3451 92.2646 98.3777 91.9536 98.4089 91.6426C98.4897 90.8412 98.5607 90.0393 98.6219 89.2368C98.7121 88.0664 98.7805 86.8938 98.8272 85.7192C98.85 85.1583 98.8676 84.5969 98.8801 84.035C98.8977 83.3383 98.906 82.6411 98.9049 81.9434C98.9049 81.2653 98.8992 80.5863 98.8878 79.9062C98.8878 79.6822 98.8785 79.4583 98.8598 79.2359C98.8464 79.0357 98.8189 78.8367 98.7774 78.6403C98.6619 78.1876 98.5058 77.7462 98.3109 77.3216C98.2767 77.2407 98.244 77.1661 98.2113 77.0805C98.1927 77.0386 98.1756 76.995 98.1585 76.953C99.0542 76.1553 99.6918 75.0869 100.305 74.0356C101.298 72.3421 102.315 70.574 102.482 68.6176C102.648 66.6613 101.676 64.4639 99.8069 63.8668C99.2984 63.7113 98.7603 63.6677 98.2362 63.576C97.7417 63.4889 96.7107 63.2914 96.1384 62.9368C95.8274 63.2561 95.5163 63.5697 95.2053 63.8777C95.2242 63.4079 95.339 62.9469 95.5428 62.5232L95.7636 62.5341C95.7456 62.4842 95.7372 62.4315 95.7387 62.3785C95.7387 62.2121 95.8538 62.024 96.0995 61.8156C96.832 61.1936 97.9843 61.0551 98.4462 60.2138C98.639 59.8639 98.6717 59.4472 98.8272 59.0802C99.2735 58.0336 100.555 57.6479 101.326 56.8112C102.098 55.9746 102.29 54.7896 102.914 53.8565C103.38 53.1752 104.026 52.6367 104.78 52.3014C104.842 52.2719 104.906 52.2423 104.97 52.2159C106.261 51.6638 107.794 51.5379 109.131 51.541C109.651 51.541 110.997 51.5565 111.657 51.8193C111.764 51.8576 111.862 51.9174 111.945 51.9951C112.647 52.7602 111.554 54.3759 111.035 54.9296Z" fill="#212A3F"/>
<path d="M95.5957 62.4143C96.797 62.0527 98.0582 61.9334 99.306 62.0634C100.554 62.1934 101.763 62.5701 102.864 63.1717C103.984 63.7937 104.989 64.6615 105.604 65.7811C106.53 67.4607 106.489 69.4854 106.424 71.4028C106.391 72.3623 106.349 73.3561 105.926 74.2176C105.436 75.2144 104.513 75.8987 103.57 76.4585C102.98 76.8351 102.333 77.115 101.654 77.2874C100.609 77.5144 99.5239 77.3216 98.4711 77.1319C97.3265 76.9204 96.098 76.6653 95.3033 75.8131C94.8368 75.3186 94.5818 74.6763 94.3298 74.0481C93.968 73.1409 93.6051 72.2348 93.2413 71.3298C92.6114 69.7575 92.3984 68.4497 93.2304 66.9179C93.6083 66.2197 94.0701 65.5665 94.4433 64.8636C94.63 64.506 95.2987 62.5061 95.5957 62.4143Z" fill="#212A3F"/>
<path d="M160.954 89.2975V93.9472C157.764 95.2724 154.342 95.9491 150.888 95.9378H108.948C108.926 95.9595 108.903 95.9798 108.879 96L108.375 95.9378H33.7723C27.513 95.9378 21.7124 94.2489 16.9553 91.372V84.2729L52.8348 80.1316H52.8628L73.7572 81.9013L79.1643 82.3679L81.9729 82.6058L87.7859 83.0988L90.7763 83.3523L95.1306 83.7224L95.7433 83.7737L98.8816 84.0396L103.139 84.3895L109.127 84.8965L119.107 85.744L126.129 86.3396L137.658 87.3178L139.851 87.5029L140.087 87.5231L140.293 87.5402L143.188 87.7859L146.367 88.0565L146.735 88.0876L160.954 89.2975Z" fill="#504F60"/>
<path d="M118.81 89.1264L73.8459 81.452L72.1027 90.2679L92.7141 92.7358L99.0604 93.5305L116.518 90.0922L118.81 89.1264Z" fill="#9C9CA1"/>
<path d="M95.535 93.0888L118.062 88.8543C118.175 88.8327 118.291 88.8363 118.402 88.8649C118.513 88.8935 118.617 88.9464 118.705 89.0196C118.793 89.0929 118.864 89.1848 118.913 89.2888C118.962 89.3928 118.987 89.5062 118.986 89.6209C118.987 89.803 118.923 89.9794 118.807 90.1195C118.691 90.2596 118.529 90.3545 118.35 90.3876L96.3499 94.5071L95.535 93.0888Z" fill="#9C9CA1"/>
<path d="M105.307 79.7725C106.009 79.7072 106.719 79.5967 107.351 79.2857C108.128 78.8985 108.733 78.2314 109.453 77.7399C111.036 76.6514 113.154 76.5052 114.969 77.1303C116.784 77.7555 118.299 79.0944 119.359 80.6931C120.064 81.7583 120.592 83.1175 120.095 84.2932C119.924 84.6525 119.709 84.989 119.454 85.2947L118.157 86.9897C117.911 87.3461 117.614 87.665 117.277 87.9368C116.792 88.2898 116.188 88.4344 115.594 88.5215C114.016 88.7517 112.41 88.621 110.819 88.7268C108.086 88.9087 105.418 89.7889 102.679 89.7594C101.105 89.7423 99.5519 89.425 98.0139 89.1078L91.2071 87.7082C90.0222 87.4656 88.6832 87.111 88.1249 86.0365C87.8745 85.5528 87.8279 84.993 87.7984 84.4487C87.7175 82.9496 87.7984 81.2825 88.8372 80.2017C89.8138 79.1878 91.358 78.8674 92.5243 78.1178C93.9519 77.1988 94.4231 77.4958 95.9285 78.1863C98.8652 79.5163 102.097 80.0628 105.307 79.7725Z" fill="#AE6E79"/>
<path opacity="0.05" d="M105.307 79.7725C106.009 79.7072 106.719 79.5967 107.351 79.2857C108.128 78.8985 108.733 78.2314 109.453 77.7399C111.036 76.6514 113.154 76.5052 114.969 77.1303C116.784 77.7555 118.299 79.0944 119.359 80.6931C120.064 81.7583 120.592 83.1175 120.095 84.2932C119.924 84.6525 119.709 84.989 119.454 85.2947L118.157 86.9897C117.911 87.3461 117.614 87.665 117.277 87.9368C116.792 88.2898 116.188 88.4344 115.594 88.5215C114.016 88.7517 112.41 88.621 110.819 88.7268C108.086 88.9087 105.418 89.7889 102.679 89.7594C101.105 89.7423 99.5519 89.425 98.0139 89.1078L91.2071 87.7082C90.0222 87.4656 88.6832 87.111 88.1249 86.0365C87.8745 85.5528 87.8279 84.993 87.7984 84.4487C87.7175 82.9496 87.7984 81.2825 88.8372 80.2017C89.8138 79.1878 91.358 78.8674 92.5243 78.1178C93.9519 77.1988 94.4231 77.4958 95.9285 78.1863C98.8652 79.5163 102.097 80.0628 105.307 79.7725Z" fill="black"/>
<path d="M132.641 77.6404C130.732 78.379 128.811 79.1208 126.811 79.5609C123.459 80.2996 119.95 80.183 116.624 81.0274C114.867 81.4753 113.12 82.1968 111.315 82.0507C110.508 81.9854 109.729 81.7396 108.943 81.553C104.531 80.4645 99.5161 80.8175 95.9332 83.6167C94.7077 84.5731 93.7047 85.7658 92.7949 87.0379C92.6003 87.3127 92.4687 87.627 92.4096 87.9585C92.3506 88.29 92.3655 88.6305 92.4533 88.9556C92.5411 89.2807 92.6996 89.5823 92.9176 89.839C93.1355 90.0957 93.4075 90.3011 93.714 90.4405C95.1074 91.0813 96.6 91.4794 98.1274 91.6177C100.169 91.7981 102.22 91.5088 104.251 91.2196C107.265 90.7919 110.281 90.3627 113.287 89.8822C114.366 89.7096 115.445 89.5307 116.531 89.3939C124.342 88.4064 132.295 89.6069 140.126 88.7827C140.918 88.6988 141.723 88.5899 142.443 88.2524C144.266 87.3971 145.168 85.1422 144.792 83.161C144.415 81.1798 142.963 79.5329 141.215 78.5221C139.75 77.6715 138.17 77.3278 136.539 76.967C135.024 76.614 134.1 77.0805 132.641 77.6404Z" fill="#AE6E79"/>
<path opacity="0.1" d="M149.395 65.7966C150.256 66.9257 150.44 68.4403 150.346 69.8539C150.253 71.2675 149.917 72.6656 149.867 74.0854C149.799 76.0324 150.269 77.9731 150.189 79.9139C150.133 81.2715 149.811 82.6027 149.43 83.9059C148.981 85.4439 148.331 87.0969 146.911 87.8356C145.026 88.8169 141.073 88.2648 139.091 89.0331C139.271 87.9087 141 86.2805 141.181 85.1562C141.305 84.3786 141.431 83.5793 141.297 82.8002C141.126 81.8065 140.543 80.9247 139.851 80.1907C138.75 79.0228 137.313 78.1442 135.735 77.8581C134.156 77.5719 130.292 77.8067 129.029 78.8036C128.873 77.7741 131.766 76.7819 132.783 76.5595C133.29 76.446 133.872 76.5098 134.277 76.1879C135.055 75.5783 134.491 74.3637 134.528 73.3887C134.557 72.6111 135.011 71.8989 135.103 71.1213C135.259 69.8772 134.447 68.6098 134.766 67.3891C134.884 66.9381 135.147 66.5415 135.329 66.1123C135.882 64.7983 135.64 63.2991 135.344 61.9027C135.161 61.0256 134.982 60.0365 135.47 59.2885C135.923 58.5903 137.207 61.0769 138.03 60.9618C140.747 60.5808 143.205 58.567 145.4 60.2154C146.518 61.0551 146.664 61.926 147.11 63.125C147.544 64.2664 148.668 64.8511 149.395 65.7966Z" fill="black"/>
<path d="M149.861 65.7967C150.723 66.9257 150.906 68.4404 150.813 69.854C150.72 71.2676 150.384 72.6656 150.334 74.0854C150.265 76.0324 150.735 77.9732 150.656 79.914C150.6 81.2716 150.278 82.6027 149.897 83.9059C149.448 85.4439 148.797 87.097 147.378 87.8357C145.493 88.817 141.54 88.2649 139.557 89.0331C139.737 87.9088 141.467 86.2806 141.647 85.1562C141.771 84.3787 141.897 83.5794 141.764 82.8002C141.593 81.8065 141.009 80.9248 140.317 80.1908C139.216 79.0229 137.779 78.1442 136.201 77.8581C134.623 77.572 130.758 77.8068 129.495 78.8036C129.34 77.7741 132.232 76.782 133.249 76.5596C133.756 76.4461 134.338 76.5098 134.744 76.1879C135.521 75.5783 134.957 74.3638 134.994 73.3887C135.024 72.6112 135.478 71.8989 135.57 71.1214C135.725 69.8773 134.913 68.6099 135.232 67.3891C135.35 66.9381 135.613 66.5416 135.795 66.1124C136.349 64.7983 136.106 63.2992 135.811 61.9027C135.627 61.0256 135.448 60.0366 135.937 59.2885C136.389 58.5903 137.274 58.3259 138.097 58.2093C140.851 57.8367 143.642 58.5568 145.872 60.2154C146.99 61.0551 147.137 61.926 147.583 63.125C148.011 64.2664 149.135 64.8512 149.861 65.7967Z" fill="#212A3F"/>
<path d="M46.9643 58.4286L55.4194 89.6769C55.5231 90.0598 55.7411 90.4019 56.0442 90.6578C56.3473 90.9137 56.7212 91.0711 57.116 91.1092L95.1727 94.7652C95.4828 94.7951 95.7956 94.7503 96.0849 94.6344C96.3742 94.5186 96.6315 94.3351 96.8352 94.0993C97.039 93.8636 97.1833 93.5825 97.256 93.2795C97.3288 92.9765 97.3279 92.6605 97.2534 92.3579L87.9943 54.6652C87.8841 54.2172 87.6186 53.8227 87.2451 53.5519C86.8715 53.2812 86.414 53.1516 85.954 53.1863L48.6951 55.973C48.409 55.9953 48.1314 56.0804 47.882 56.2222C47.6326 56.3641 47.4175 56.5592 47.2522 56.7938C47.0869 57.0283 46.9754 57.2964 46.9256 57.579C46.8758 57.8616 46.889 58.1517 46.9643 58.4286Z" fill="#9C9CA1"/>
<path d="M122.404 64.5262C124.715 64.5262 126.587 62.6289 126.587 60.2885C126.587 57.9481 124.715 56.0508 122.404 56.0508C120.094 56.0508 118.221 57.9481 118.221 60.2885C118.221 62.6289 120.094 64.5262 122.404 64.5262Z" fill="white"/>
<path d="M125.84 52.558C125.84 52.558 126.721 55.1799 124.12 56.2825L123.787 56.8641L125.417 58.4721C125.417 58.4721 127.426 54.8067 127.208 53.5051C127.208 53.5051 126.897 52.1832 125.84 52.558Z" fill="white"/>
<path d="M122.885 64.5261C125.113 64.5261 126.919 62.7201 126.919 60.4922C126.919 58.2643 125.113 56.4582 122.885 56.4582C120.657 56.4582 118.851 58.2643 118.851 60.4922C118.851 62.7201 120.657 64.5261 122.885 64.5261Z" fill="#8AB839"/>
<path d="M127.228 54.1007L126.587 53.0432L125.654 52.911C125.853 49.4292 124.95 48.3919 124.95 48.3919L124.74 48.3717L123.826 48.283L122.106 46.4978V45.9908C124.522 46.2785 125.858 47.4262 126.58 48.7713C127.855 51.132 127.228 54.1007 127.228 54.1007Z" fill="#8AB839"/>
<path opacity="0.1" d="M124.748 47.731V48.3717L123.833 48.283L122.113 46.4978C122.113 46.4978 124.774 47.0934 124.748 47.731Z" fill="black" stroke="#4C4981" stroke-miterlimit="10"/>
<path opacity="0.1" d="M127.228 54.1007L126.587 53.0432V48.7776C127.855 51.132 127.228 54.1007 127.228 54.1007Z" fill="black" stroke="#4C4981" stroke-miterlimit="10"/>
<path d="M115.431 62.1504C116.504 61.5308 116.458 59.4414 115.327 57.4837C114.197 55.5261 112.411 54.4414 111.337 55.0611C110.264 55.6807 110.31 57.7701 111.441 59.7278C112.571 61.6854 114.357 62.7701 115.431 62.1504Z" fill="white"/>
<path d="M113.989 58.2637C115.12 60.2216 116.507 61.5294 115.434 62.1515C114.361 62.7735 111.235 62.4625 110.105 60.5031C108.974 58.5436 110.001 55.8377 111.074 55.2157C112.147 54.5936 112.857 56.3012 113.989 58.2637Z" fill="#8AB839"/>
<path opacity="0.1" d="M124.056 44.1589C124.056 50.4151 119.775 56.4443 113.518 56.4443C110.514 56.4443 107.632 55.2507 105.508 53.1261C103.383 51.0015 102.189 48.1199 102.189 45.1153C102.189 42.1106 103.383 39.2291 105.508 37.1045C107.632 34.9799 110.514 33.7863 113.518 33.7863C119.775 33.7925 124.056 37.9011 124.056 44.1589Z" fill="black"/>
<path d="M113.518 56.1394C119.775 56.1394 124.847 51.0673 124.847 44.8105C124.847 38.5536 119.775 33.4815 113.518 33.4815C107.261 33.4815 102.189 38.5536 102.189 44.8105C102.189 51.0673 107.261 56.1394 113.518 56.1394Z" fill="#AE6E79"/>
<path d="M112.523 39.7906C113.871 40.2866 114.669 41.68 115.879 42.456C117.59 43.5446 119.817 43.2631 121.77 42.7251C122.858 42.428 123.997 42.0657 125.068 42.3954C125.226 42.4652 125.4 42.4899 125.57 42.4669C125.804 42.4 125.919 42.1419 125.995 41.9117C127.32 37.9618 126.724 33.4877 124.724 29.8332C124.208 28.8908 123.589 27.9795 122.737 27.3248C122.065 26.8101 121.275 26.4726 120.479 26.1849C119.024 25.6623 117.519 25.2908 115.988 25.0761C115.717 25.027 115.441 25.0181 115.168 25.0497C114.794 25.1104 114.458 25.3125 114.123 25.4929C112.691 26.2605 111.103 26.6918 109.48 26.7541C107.303 26.8365 104.814 26.3233 103.136 27.7198C101.115 29.3947 101.619 32.662 100.308 34.9355C99.4399 36.4393 97.7666 37.531 97.4914 39.2432C97.4197 39.7665 97.453 40.2989 97.5893 40.8092C98.23 43.4435 100.78 45.4838 103.499 45.532C103.916 45.5639 104.334 45.4782 104.706 45.2848C104.949 45.1188 105.164 44.9145 105.342 44.6798C107.122 42.5711 109.159 38.5527 112.523 39.7906Z" fill="#212A3F"/>
<path opacity="0.1" d="M125.995 40.7656C125.919 40.9958 125.804 41.2539 125.57 41.3208C125.4 41.3438 125.226 41.319 125.068 41.2493C123.997 40.9196 122.852 41.2819 121.771 41.5789C119.817 42.117 117.585 42.4047 115.881 41.3099C114.669 40.5324 113.873 39.1328 112.523 38.6444C109.159 37.4004 107.122 41.425 105.337 43.5337C105.159 43.7684 104.944 43.9727 104.701 44.1387C104.33 44.3321 103.912 44.4178 103.494 44.3859C100.785 44.3377 98.2332 42.2974 97.5847 39.663C97.5489 39.5075 97.5178 39.352 97.4945 39.1965C97.4945 39.2105 97.4945 39.2229 97.4867 39.2369C97.4151 39.7603 97.4484 40.2926 97.5847 40.8029C98.2254 43.4373 100.777 45.4776 103.494 45.5258C103.912 45.5577 104.33 45.472 104.701 45.2786C104.944 45.1125 105.159 44.9083 105.337 44.6736C107.122 42.5649 109.159 38.5465 112.523 39.7843C113.873 40.2804 114.669 41.6738 115.881 42.4498C117.591 43.5384 119.817 43.2569 121.771 42.7188C122.86 42.4218 123.997 42.0595 125.068 42.3892C125.226 42.4589 125.4 42.4837 125.57 42.4607C125.804 42.3938 125.919 42.1357 125.995 41.9055C126.529 40.2893 126.765 38.5894 126.692 36.8887C126.646 38.2077 126.411 39.5133 125.995 40.7656Z" fill="black"/>
</g>
<defs>
<clipPath id="clip0">
<rect width="177.904" height="96" fill="white"/>
</clipPath>
</defs>
</svg>
