<svg width="142" height="96" viewBox="0 0 142 96" fill="none" xmlns="http://www.w3.org/2000/svg">
<g clip-path="url(#clip0)">
<path d="M136.972 93.7223C133.806 96.0035 129.702 96.1181 125.735 95.8378C125.181 95.7988 124.631 95.7529 124.087 95.7034C124.083 95.7026 124.079 95.7029 124.076 95.702C124.049 95.6995 124.023 95.697 123.998 95.6956C123.886 95.685 123.773 95.6745 123.662 95.6639L123.688 95.7141L123.771 95.87C123.741 95.8178 123.711 95.7667 123.682 95.7146C123.673 95.6989 123.663 95.6834 123.654 95.6677C122.627 93.8795 121.608 92.0257 121.348 89.9838C121.079 87.8644 121.834 85.4645 123.7 84.4228C123.944 84.2866 124.203 84.1781 124.472 84.0993C124.583 84.0654 124.697 84.0379 124.811 84.0136C125.51 83.8583 126.239 83.8921 126.921 84.1115C127.603 84.331 128.215 84.7281 128.692 85.2622C129.17 85.7963 129.497 86.448 129.639 87.1503C129.782 87.8526 129.735 88.5802 129.503 89.2582C131.084 87.6366 130.789 85.0059 130.244 82.8073C129.697 80.6088 129.035 78.1623 130.147 76.1876C130.765 75.0884 131.852 74.4064 133.071 74.1317C133.109 74.1237 133.146 74.1156 133.184 74.1086C134.637 73.8143 136.147 74.079 137.414 74.8498C139.746 76.3193 140.943 79.1056 141.332 81.8349C141.958 86.2269 140.572 91.1285 136.972 93.7223Z" fill="#F2F2F2"/>
<path d="M135.95 86.6818C135.858 87.6506 135.625 88.6008 135.259 89.5024C134.922 90.3002 134.467 91.0432 133.91 91.7065C132.751 93.0622 131.284 94.12 129.632 94.7907C128.382 95.3026 127.073 95.6544 125.735 95.8378C125.181 95.7987 124.631 95.7529 124.086 95.7034C124.083 95.7026 124.079 95.7029 124.076 95.702C124.049 95.6995 124.023 95.697 123.998 95.6955C123.886 95.685 123.773 95.6745 123.662 95.6639L123.688 95.7141L123.771 95.87C123.741 95.8178 123.711 95.7667 123.682 95.7146C123.673 95.6989 123.663 95.6833 123.654 95.6677C124.657 94.6683 125.406 93.4431 125.838 92.0948C126.27 90.7464 126.373 89.3141 126.137 87.918C125.891 86.5316 125.32 85.2232 124.472 84.0993C124.583 84.0654 124.696 84.0379 124.811 84.0136C125.133 84.4543 125.416 84.9227 125.656 85.4132C126.517 87.1626 126.791 89.1426 126.439 91.0602C126.112 92.7955 125.296 94.4013 124.088 95.6892C124.193 95.6818 124.3 95.6731 124.405 95.6636C126.385 95.4959 128.361 95.0702 130.157 94.1983C131.692 93.4711 133.025 92.3776 134.038 91.014C135.125 89.514 135.605 87.7097 135.687 85.8758C135.75 83.9001 135.543 81.925 135.071 80.0054C134.614 78.048 133.919 76.154 133.001 74.3656C132.98 74.325 132.976 74.2781 132.989 74.2346C133.002 74.191 133.032 74.1542 133.071 74.1317C133.104 74.1095 133.145 74.1012 133.184 74.1086C133.203 74.1136 133.22 74.1229 133.235 74.1358C133.25 74.1486 133.262 74.1647 133.27 74.1828C133.383 74.4037 133.494 74.6248 133.601 74.8483C134.491 76.7104 135.147 78.6759 135.552 80.6995C135.946 82.6517 136.156 84.6938 135.95 86.6818Z" fill="white"/>
<path d="M5.89065 30.5133C5.79637 30.5132 5.70294 30.4955 5.61512 30.4612C5.47311 30.4067 5.35106 30.3102 5.26517 30.1846C5.17929 30.0591 5.13364 29.9103 5.13429 29.7582V21.8783C5.13399 21.6116 5.0279 21.3558 4.8393 21.1672C4.65071 20.9786 4.395 20.8725 4.12827 20.8722H2.51465C1.84795 20.8715 1.20877 20.6063 0.737348 20.1349C0.265922 19.6634 0.000747201 19.0243 0 18.3576V2.51464C0.000747644 1.84795 0.265923 1.20877 0.737348 0.737348C1.20877 0.265923 1.84795 0.0007472 2.51465 0H59.432C60.0987 0.000748086 60.7378 0.265923 61.2093 0.737348C61.6807 1.20877 61.9459 1.84795 61.9466 2.51464V18.3576C61.9459 19.0243 61.6807 19.6634 61.2093 20.1349C60.7378 20.6063 60.0987 20.8715 59.432 20.8722H15.4999C15.3604 20.8724 15.2225 20.9015 15.0949 20.9576C14.9672 21.0138 14.8526 21.0958 14.7583 21.1985L6.44467 30.2679C6.37447 30.3451 6.28894 30.4068 6.19354 30.449C6.09814 30.4913 5.99498 30.5132 5.89065 30.5133V30.5133ZM2.51465 0.335079C1.93679 0.335731 1.38279 0.565574 0.97418 0.97418C0.565573 1.38279 0.335731 1.93679 0.335078 2.51464V18.3576C0.335732 18.9354 0.565573 19.4894 0.97418 19.898C1.38279 20.3066 1.93679 20.5365 2.51465 20.5371H4.12827C4.48383 20.5375 4.82472 20.679 5.07614 20.9304C5.32756 21.1818 5.46897 21.5227 5.46936 21.8783V29.7582C5.46937 29.8427 5.49489 29.9252 5.54258 29.9949C5.59027 30.0646 5.65792 30.1183 5.73664 30.1489C5.81537 30.1795 5.90151 30.1857 5.98378 30.1665C6.06604 30.1473 6.1406 30.1037 6.19768 30.0415L14.5113 20.972C14.6371 20.8351 14.7898 20.7258 14.96 20.651C15.1302 20.5761 15.314 20.5374 15.4999 20.5371H59.432C60.0098 20.5365 60.5638 20.3066 60.9724 19.898C61.381 19.4894 61.6109 18.9354 61.6115 18.3576V2.51464C61.6109 1.93679 61.381 1.38279 60.9724 0.97418C60.5638 0.565574 60.0098 0.335731 59.432 0.335079H2.51465Z" fill="#CCCCCC"/>
<path d="M6.16812 7.13552C7.38338 7.13552 8.36854 6.15036 8.36854 4.9351C8.36854 3.71985 7.38338 2.73469 6.16812 2.73469C4.95287 2.73469 3.96771 3.71985 3.96771 4.9351C3.96771 6.15036 4.95287 7.13552 6.16812 7.13552Z" fill="#CCCCCC"/>
<path d="M56.8649 17.1107H5.08182C4.92759 17.1109 4.77483 17.0807 4.63229 17.0218C4.48974 16.9629 4.36021 16.8765 4.25108 16.7675C4.14196 16.6585 4.05539 16.5291 3.99633 16.3866C3.93726 16.2441 3.90686 16.0914 3.90686 15.9372C3.90686 15.7829 3.93726 15.6302 3.99633 15.4877C4.05539 15.3453 4.14196 15.2158 4.25108 15.1068C4.36021 14.9978 4.48974 14.9114 4.63229 14.8525C4.77483 14.7936 4.92759 14.7634 5.08182 14.7636H56.8649C57.0191 14.7634 57.1719 14.7936 57.3144 14.8525C57.457 14.9114 57.5865 14.9978 57.6956 15.1068C57.8047 15.2158 57.8913 15.3453 57.9504 15.4877C58.0094 15.6302 58.0398 15.7829 58.0398 15.9372C58.0398 16.0914 58.0094 16.2441 57.9504 16.3866C57.8913 16.5291 57.8047 16.6585 57.6956 16.7675C57.5865 16.8765 57.457 16.9629 57.3144 17.0218C57.1719 17.0807 57.0191 17.1109 56.8649 17.1107V17.1107Z" fill="#CCCCCC"/>
<path d="M39.995 12.1231H5.08182C4.92758 12.1233 4.77483 12.0931 4.63229 12.0342C4.48974 11.9753 4.36021 11.8889 4.25108 11.7799C4.14196 11.6709 4.05539 11.5415 3.99633 11.399C3.93726 11.2565 3.90686 11.1038 3.90686 10.9496C3.90686 10.7953 3.93726 10.6426 3.99633 10.5001C4.05539 10.3577 4.14196 10.2282 4.25108 10.1192C4.36021 10.0102 4.48974 9.92383 4.63229 9.86494C4.77483 9.80604 4.92758 9.77583 5.08182 9.77601H39.995C40.1492 9.77583 40.302 9.80604 40.4445 9.86494C40.5871 9.92383 40.7166 10.0102 40.8258 10.1192C40.9349 10.2282 41.0214 10.3577 41.0805 10.5001C41.1396 10.6426 41.17 10.7953 41.17 10.9496C41.17 11.1038 41.1396 11.2565 41.0805 11.399C41.0214 11.5415 40.9349 11.6709 40.8258 11.7799C40.7166 11.8889 40.5871 11.9753 40.4445 12.0342C40.302 12.0931 40.1492 12.1233 39.995 12.1231V12.1231Z" fill="#CCCCCC"/>
<path d="M5.89065 86.4037C5.79637 86.4036 5.70294 86.386 5.61512 86.3517C5.47312 86.2971 5.35107 86.2007 5.26518 86.0751C5.1793 85.9495 5.13365 85.8008 5.13429 85.6487V77.7688C5.13399 77.502 5.0279 77.2463 4.8393 77.0577C4.65071 76.8691 4.395 76.763 4.12827 76.7627H2.51465C1.84795 76.7619 1.20878 76.4968 0.737351 76.0254C0.265925 75.5539 0.000748974 74.9148 0 74.2481V58.4051C0.000747643 57.7384 0.265923 57.0992 0.737348 56.6278C1.20877 56.1564 1.84795 55.8912 2.51465 55.8905H59.432C60.0987 55.8912 60.7378 56.1564 61.2093 56.6278C61.6807 57.0992 61.9459 57.7384 61.9466 58.4051V74.2481C61.9459 74.9148 61.6807 75.5539 61.2093 76.0254C60.7378 76.4968 60.0987 76.762 59.432 76.7627H15.4999C15.3604 76.7629 15.2225 76.7919 15.0949 76.8481C14.9672 76.9042 14.8526 76.9863 14.7583 77.0889L6.44467 86.1584C6.37447 86.2356 6.28894 86.2973 6.19354 86.3395C6.09814 86.3818 5.99498 86.4036 5.89065 86.4037V86.4037ZM2.51465 56.2255C1.93679 56.2262 1.38279 56.456 0.97418 56.8646C0.565573 57.2732 0.33573 57.8272 0.335078 58.4051V74.2481C0.335731 74.8259 0.565573 75.3799 0.97418 75.7885C1.38279 76.1971 1.93679 76.427 2.51465 76.4276H4.12827C4.48383 76.428 4.82472 76.5695 5.07614 76.8209C5.32756 77.0723 5.46897 77.4132 5.46936 77.7688V85.6487C5.46937 85.7331 5.49489 85.8156 5.54258 85.8854C5.59027 85.9551 5.65792 86.0088 5.73664 86.0394C5.81537 86.07 5.90151 86.0761 5.98378 86.057C6.06604 86.0378 6.1406 85.9942 6.19768 85.932L14.5113 76.8625C14.6371 76.7256 14.7898 76.6163 14.96 76.5414C15.1302 76.4666 15.314 76.4278 15.4999 76.4276H59.432C60.0098 76.427 60.5638 76.1971 60.9724 75.7885C61.381 75.3799 61.6109 74.8259 61.6115 74.2481V58.4051C61.6109 57.8273 61.381 57.2733 60.9724 56.8646C60.5638 56.456 60.0098 56.2262 59.432 56.2255L2.51465 56.2255Z" fill="#CCCCCC"/>
<path d="M89.9423 57.3583C89.838 57.3582 89.7348 57.3363 89.6394 57.2941C89.544 57.2519 89.4585 57.1902 89.3883 57.113L81.0746 48.0435C80.9803 47.9408 80.8657 47.8588 80.7381 47.8027C80.6104 47.7465 80.4725 47.7174 80.3331 47.7173H36.401C35.7343 47.7165 35.0951 47.4514 34.6237 46.9799C34.1523 46.5085 33.8871 45.8693 33.8864 45.2026V29.3597C33.8871 28.693 34.1523 28.0538 34.6237 27.5824C35.0951 27.111 35.7343 26.8458 36.401 26.8451H93.3183C93.985 26.8458 94.6242 27.111 95.0956 27.5824C95.567 28.0538 95.8322 28.693 95.8329 29.3597V45.2026C95.8322 45.8693 95.567 46.5085 95.0956 46.9799C94.6242 47.4514 93.985 47.7165 93.3183 47.7173H91.7047C91.438 47.7176 91.1822 47.8237 90.9936 48.0123C90.805 48.2009 90.699 48.4566 90.6987 48.7233V56.6032C90.6993 56.7554 90.6537 56.9041 90.5678 57.0297C90.4819 57.1552 90.3598 57.2517 90.2178 57.3062C90.13 57.3406 90.0366 57.3582 89.9423 57.3583V57.3583ZM36.401 27.1801C35.8231 27.1808 35.2691 27.4106 34.8605 27.8192C34.4519 28.2278 34.2221 28.7818 34.2214 29.3597V45.2026C34.2221 45.7805 34.4519 46.3345 34.8605 46.7431C35.2691 47.1517 35.8231 47.3815 36.401 47.3822H80.3331C80.519 47.3824 80.7028 47.4212 80.8729 47.496C81.0431 47.5709 81.1959 47.6802 81.3216 47.8171L89.6353 56.8865C89.6923 56.9488 89.7669 56.9924 89.8492 57.0115C89.9314 57.0307 90.0176 57.0246 90.0963 56.994C90.175 56.9633 90.2427 56.9096 90.2904 56.8399C90.3381 56.7702 90.3636 56.6877 90.3636 56.6032V48.7233C90.364 48.3678 90.5054 48.0269 90.7568 47.7755C91.0082 47.524 91.3491 47.3826 91.7047 47.3822H93.3183C93.8962 47.3815 94.4502 47.1517 94.8588 46.7431C95.2674 46.3345 95.4972 45.7805 95.4979 45.2026V29.3597C95.4972 28.7818 95.2674 28.2278 94.8588 27.8192C94.4502 27.4106 93.8962 27.1808 93.3183 27.1801L36.401 27.1801Z" fill="#3F3D56"/>
<path d="M6.16812 63.026C7.38338 63.026 8.36854 62.0408 8.36854 60.8256C8.36854 59.6103 7.38338 58.6252 6.16812 58.6252C4.95287 58.6252 3.96771 59.6103 3.96771 60.8256C3.96771 62.0408 4.95287 63.026 6.16812 63.026Z" fill="#CCCCCC"/>
<path d="M56.8649 73.0012H5.08182C4.92758 73.0014 4.77483 72.9711 4.63229 72.9122C4.48974 72.8533 4.36021 72.7669 4.25108 72.6579C4.14196 72.5489 4.05539 72.4195 3.99633 72.277C3.93726 72.1346 3.90686 71.9818 3.90686 71.8276C3.90686 71.6734 3.93726 71.5207 3.99633 71.3782C4.05539 71.2357 4.14196 71.1063 4.25108 70.9973C4.36021 70.8883 4.48974 70.8019 4.63229 70.743C4.77483 70.6841 4.92758 70.6539 5.08182 70.6541H56.8649C57.1761 70.6541 57.4746 70.7777 57.6947 70.9978C57.9148 71.2179 58.0384 71.5164 58.0384 71.8276C58.0384 72.1389 57.9148 72.4374 57.6947 72.6574C57.4746 72.8775 57.1761 73.0012 56.8649 73.0012Z" fill="#CCCCCC"/>
<path d="M39.995 68.0136H5.08182C4.92758 68.0138 4.77483 67.9836 4.63229 67.9247C4.48974 67.8658 4.36021 67.7793 4.25108 67.6704C4.14196 67.5614 4.05539 67.4319 3.99633 67.2895C3.93726 67.147 3.90686 66.9943 3.90686 66.84C3.90686 66.6858 3.93726 66.5331 3.99633 66.3906C4.05539 66.2481 4.14196 66.1187 4.25108 66.0097C4.36021 65.9007 4.48974 65.8143 4.63229 65.7554C4.77483 65.6965 4.92758 65.6663 5.08182 65.6665H39.995C40.1492 65.6663 40.302 65.6965 40.4445 65.7554C40.5871 65.8143 40.7166 65.9007 40.8258 66.0097C40.9349 66.1187 41.0214 66.2481 41.0805 66.3906C41.1396 66.5331 41.17 66.6858 41.17 66.84C41.17 66.9943 41.1396 67.147 41.0805 67.2895C41.0214 67.4319 40.9349 67.5614 40.8258 67.6704C40.7166 67.7793 40.5871 67.8658 40.4445 67.9247C40.302 67.9836 40.1492 68.0138 39.995 68.0136Z" fill="#CCCCCC"/>
<path d="M40.0545 33.8338C41.2697 33.8338 42.2549 32.8487 42.2549 31.6334C42.2549 30.4182 41.2697 29.433 40.0545 29.433C38.8392 29.433 37.8541 30.4182 37.8541 31.6334C37.8541 32.8487 38.8392 33.8338 40.0545 33.8338Z" fill="#3F3D56"/>
<path d="M90.7512 43.8091H38.9682C38.6569 43.8091 38.3584 43.6854 38.1383 43.4653C37.9183 43.2452 37.7946 42.9467 37.7946 42.6355C37.7946 42.3242 37.9183 42.0257 38.1383 41.8056C38.3584 41.5855 38.6569 41.4619 38.9682 41.4619H90.7512C91.0624 41.4619 91.3609 41.5855 91.581 41.8056C91.8011 42.0257 91.9247 42.3242 91.9247 42.6355C91.9247 42.9467 91.8011 43.2452 91.581 43.4653C91.3609 43.6854 91.0624 43.8091 90.7512 43.8091V43.8091Z" fill="#8AB839"/>
<path d="M73.8814 38.8214H38.9682C38.8139 38.8216 38.6612 38.7914 38.5186 38.7325C38.3761 38.6736 38.2466 38.5872 38.1374 38.4782C38.0283 38.3692 37.9417 38.2398 37.8827 38.0973C37.8236 37.9548 37.7932 37.8021 37.7932 37.6479C37.7932 37.4936 37.8236 37.3409 37.8827 37.1985C37.9417 37.056 38.0283 36.9265 38.1374 36.8176C38.2466 36.7086 38.3761 36.6222 38.5186 36.5633C38.6612 36.5044 38.8139 36.4741 38.9682 36.4743H73.8814C74.0356 36.4741 74.1884 36.5044 74.3309 36.5633C74.4734 36.6222 74.603 36.7086 74.7121 36.8176C74.8212 36.9265 74.9078 37.056 74.9669 37.1985C75.0259 37.3409 75.0563 37.4936 75.0563 37.6479C75.0563 37.8021 75.0259 37.9548 74.9669 38.0973C74.9078 38.2398 74.8212 38.3692 74.7121 38.4782C74.603 38.5872 74.4734 38.6736 74.3309 38.7325C74.1884 38.7914 74.0356 38.8216 73.8814 38.8214Z" fill="#8AB839"/>
<path d="M101.038 60.3742C101.088 60.1331 101.191 59.906 101.338 59.7088C101.486 59.5116 101.675 59.3492 101.892 59.2329C102.109 59.1167 102.349 59.0495 102.595 59.036C102.841 59.0225 103.087 59.0632 103.315 59.155L107.246 54.6388L108.081 57.6358L104.22 61.465C104.041 61.8387 103.73 62.1335 103.347 62.2935C102.965 62.4535 102.537 62.4676 102.145 62.3332C101.752 62.1987 101.423 61.925 101.219 61.564C101.015 61.2029 100.951 60.7796 101.038 60.3742V60.3742Z" fill="#FFB8B8"/>
<path d="M122.609 39.181C124.882 39.181 126.724 37.3387 126.724 35.0661C126.724 32.7935 124.882 30.9511 122.609 30.9511C120.337 30.9511 118.494 32.7935 118.494 35.0661C118.494 37.3387 120.337 39.181 122.609 39.181Z" fill="#FFB8B8"/>
<path d="M117.775 91.7065L115.721 91.7063L114.744 83.7837L117.776 83.7838L117.775 91.7065Z" fill="#FFB8B8"/>
<path d="M118.299 93.6975L111.676 93.6973V93.6135C111.676 93.275 111.743 92.9398 111.872 92.627C112.002 92.3143 112.192 92.0301 112.431 91.7907C112.67 91.5513 112.955 91.3615 113.267 91.2319C113.58 91.1024 113.915 91.0357 114.254 91.0357H114.254L118.299 91.0359L118.299 93.6975Z" fill="#2F2E41"/>
<path d="M123.974 93.8844L121.92 93.8843L121.636 86.151L123.974 85.9618L123.974 93.8844Z" fill="#FFB8B8"/>
<path d="M124.498 95.8756L117.875 95.8753V95.7915C117.875 95.453 117.942 95.1178 118.071 94.805C118.201 94.4923 118.391 94.2081 118.63 93.9687C118.869 93.7294 119.154 93.5395 119.466 93.4099C119.779 93.2804 120.114 93.2137 120.453 93.2137H120.453L124.498 93.2139L124.498 95.8756Z" fill="#2F2E41"/>
<path d="M123.39 92.4387L121.79 92.2504C121.609 92.2286 121.442 92.1419 121.319 92.0062C121.197 91.8705 121.128 91.6952 121.125 91.5125L120.825 70.6808C120.824 70.6219 120.802 70.5651 120.764 70.5205C120.725 70.4758 120.672 70.4461 120.614 70.4365C120.556 70.427 120.496 70.4382 120.446 70.4682C120.395 70.4982 120.356 70.5451 120.337 70.6007L118.118 76.8665L118.276 88.6113C118.279 88.8052 118.207 88.9926 118.075 89.1347C117.943 89.2767 117.761 89.3624 117.568 89.374L115.48 89.4627C115.289 89.4736 115.101 89.4118 114.953 89.2899C114.806 89.168 114.71 88.9948 114.685 88.8052L113.594 75.5192L113.593 75.5108L115.248 61.6353L127.677 62.5345L124.227 91.7783C124.205 91.9616 124.117 92.1304 123.979 92.253C123.841 92.3757 123.663 92.4436 123.478 92.4439C123.449 92.444 123.419 92.4422 123.39 92.4387Z" fill="#2F2E41"/>
<path d="M115.301 62.8654C115.19 62.8058 115.095 62.719 115.026 62.613C114.957 62.507 114.916 62.3853 114.907 62.2592C114.907 62.2592 116.024 55.3089 116.434 55.1785L115.538 47.7459C115.431 46.8394 115.505 45.9206 115.758 45.0434C116.011 44.1661 116.436 43.3482 117.009 42.6376C117.561 41.9482 118.247 41.3778 119.025 40.9608C119.803 40.5438 120.658 40.2888 121.538 40.2113C121.663 40.2 121.788 40.1913 121.912 40.1854C122.972 40.1286 124.03 40.3287 124.997 40.7686C125.963 41.2085 126.809 41.8753 127.463 42.7122C128.141 43.5563 128.605 44.5517 128.815 45.6137C129.026 46.6757 128.977 47.7728 128.672 48.8117L128.17 50.5607V62.7837C128.169 62.903 128.141 63.0205 128.087 63.1268C128.032 63.2331 127.954 63.3253 127.858 63.3958C126.293 64.5444 124.524 64.9505 122.806 64.9505C119.553 64.9505 116.48 63.4963 115.301 62.8654Z" fill="#8AB839"/>
<path d="M105.653 60.6287L103.491 59.0122C103.406 58.9488 103.336 58.8683 103.284 58.7758C103.233 58.6833 103.201 58.5811 103.192 58.4756C103.182 58.3701 103.195 58.2639 103.229 58.1637C103.264 58.0636 103.319 57.9718 103.391 57.8943L116.269 44.0766C116.682 43.6369 117.239 43.3601 117.84 43.2963C118.44 43.2325 119.043 43.386 119.539 43.7289L119.539 43.7289C119.842 43.9399 120.094 44.2149 120.278 44.5345C120.463 44.8541 120.574 45.2103 120.605 45.5779C120.636 45.9454 120.585 46.3153 120.457 46.661C120.328 47.0068 120.125 47.32 119.862 47.5784L106.632 60.563C106.516 60.6782 106.365 60.7521 106.203 60.7736C106.041 60.795 105.876 60.7627 105.734 60.6817C105.706 60.6657 105.679 60.648 105.653 60.6287V60.6287Z" fill="#8AB839"/>
<path d="M122.197 58.7991C122.291 58.5716 122.435 58.3677 122.617 58.2016C122.798 58.0354 123.014 57.9112 123.249 57.8376C123.485 57.764 123.733 57.7429 123.977 57.7757C124.221 57.8084 124.455 57.8943 124.662 58.0273L129.368 54.3257L129.628 57.426L125.119 60.4658C124.873 60.7993 124.513 61.0308 124.107 61.1164C123.701 61.202 123.278 61.1358 122.918 60.9304C122.558 60.725 122.285 60.3945 122.152 60.0017C122.02 59.6089 122.035 59.181 122.197 58.7991V58.7991Z" fill="#FFB8B8"/>
<path d="M126.409 60.2442C126.284 60.2055 126.172 60.1349 126.083 60.0394C125.994 59.9439 125.932 59.8269 125.902 59.6998L125.427 57.7034C125.392 57.5617 125.4 57.4129 125.449 57.2754C125.498 57.138 125.587 57.0181 125.704 56.9307L128.902 53.4719L124.197 46.2182C123.841 45.7797 123.641 45.2357 123.627 44.6711C123.613 44.1064 123.786 43.5531 124.12 43.0976C124.386 42.7346 124.744 42.4484 125.156 42.268C125.568 42.0876 126.021 42.0195 126.468 42.0704C126.915 42.1213 127.341 42.2895 127.703 42.558C128.064 42.8265 128.348 43.1857 128.525 43.5992L132.899 52.112C133.334 52.9577 133.442 53.9339 133.204 54.8544C132.965 55.775 132.396 56.5756 131.605 57.1038L127.136 60.0894C126.999 60.2119 126.822 60.2796 126.638 60.2798C126.56 60.2797 126.483 60.2677 126.409 60.2442V60.2442Z" fill="#8AB839"/>
<path d="M125.658 38.7447C125.561 38.8029 125.452 38.838 125.34 38.8473C125.227 38.8566 125.114 38.8398 125.008 38.7983C124.903 38.7567 124.809 38.6915 124.733 38.6077C124.657 38.5239 124.602 38.4238 124.571 38.315L124.568 38.3048C124.484 37.9624 124.55 37.604 124.572 37.2522C124.594 36.9004 124.557 36.5142 124.316 36.2569C123.867 35.7773 123.074 36.0371 122.428 35.9186C122.049 35.8362 121.713 35.6187 121.484 35.3067C121.254 34.9947 121.146 34.6097 121.179 34.2236C121.188 34.1505 121.202 34.0772 121.218 34.004C121.257 33.8185 121.253 33.6264 121.206 33.4427C121.158 33.259 121.069 33.0889 120.945 32.9455C120.821 32.8022 120.665 32.6896 120.49 32.6166C120.315 32.5435 120.125 32.5121 119.936 32.5247C119.284 32.5655 118.58 32.7669 118.038 32.2865C117.839 32.0969 117.7 31.853 117.639 31.5851C117.578 31.3172 117.597 31.0372 117.694 30.7801C117.997 29.8886 118.866 29.4182 119.727 29.1575C120.792 28.8437 121.913 28.7711 123.009 28.945C124.105 29.1188 125.149 29.5348 126.064 30.1626C126.611 30.5435 127.122 31.0231 127.358 31.6464C127.593 32.2696 127.485 33.0581 126.964 33.4732C127.372 33.9006 127.661 34.4277 127.801 35.0017C127.941 35.5756 127.928 36.1764 127.763 36.7437C127.508 37.578 126.279 38.3832 125.658 38.7447Z" fill="#2F2E41"/>
</g>
<defs>
<clipPath id="clip0">
<rect width="141.19" height="96" fill="white"/>
</clipPath>
</defs>
</svg>
